horizon1994-large.ufo
<glyph name="quotedbl" format="2">
  <advance width="500"/>
  <unicode hex="0022"/>
  <outline>
    <contour>
      <point x="187.5" y="437" type="line"/>
      <point x="125" y="437" type="line"/>
      <point x="125" y="499.5" type="line"/>
      <point x="62.5" y="499.5" type="line"/>
      <point x="62.5" y="687" type="line"/>
      <point x="187.5" y="687" type="line"/>
    </contour>
    <contour>
      <point x="437.5" y="499.5" type="line"/>
      <point x="375" y="499.5" type="line"/>
      <point x="375" y="437" type="line"/>
      <point x="312.5" y="437" type="line"/>
      <point x="312.5" y="687" type="line"/>
      <point x="437.5" y="687" type="line"/>
    </contour>
  </outline>
</glyph>
<glyph name="dollar" format="2">
  <advance width="500"/>
  <unicode hex="0024"/>
  <outline>
    <contour>
      <point x="62.5" y="-0.5" type="line"/>
      <point x="62.5" y="62" type="line"/>
      <point x="0" y="62" type="line"/>
      <point x="0" y="187" type="line"/>
      <point x="62.5" y="187" type="line"/>
      <point x="62.5" y="124.5" type="line"/>
      <point x="125" y="124.5" type="line"/>
      <point x="125" y="62" type="line"/>
      <point x="312.5" y="62" type="line"/>
      <point x="312.5" y="312" type="line"/>
      <point x="62.5" y="312" type="line"/>
      <point x="62.5" y="374.5" type="line"/>
      <point x="0" y="374.5" type="line"/>
      <point x="0" y="562" type="line"/>
      <point x="62.5" y="562" type="line"/>
      <point x="62.5" y="624.5" type="line"/>
      <point x="187.5" y="624.5" type="line"/>
      <point x="187.5" y="687" type="line"/>
      <point x="187.5" y="749.5" type="line"/>
      <point x="312.5" y="749.5" type="line"/>
      <point x="312.5" y="624.5" type="line"/>
      <point x="375" y="624.5" type="line"/>
      <point x="375" y="562" type="line"/>
      <point x="437.5" y="562" type="line"/>
      <point x="437.5" y="437" type="line"/>
      <point x="375" y="437" type="line"/>
      <point x="375" y="499.5" type="line"/>
      <point x="312.5" y="499.5" type="line"/>
      <point x="312.5" y="562" type="line"/>
      <point x="125" y="562" type="line"/>
      <point x="125" y="374.5" type="line"/>
      <point x="375" y="374.5" type="line"/>
      <point x="375" y="312" type="line"/>
      <point x="437.5" y="312" type="line"/>
      <point x="437.5" y="62" type="line"/>
      <point x="375" y="62" type="line"/>
      <point x="375" y="-0.5" type="line"/>
      <point x="312.5" y="-0.5" type="line"/>
      <point x="312.5" y="-125.5" type="line"/>
      <point x="187.5" y="-125.5" type="line"/>
      <point x="187.5" y="-0.5" type="line"/>
    </contour>
  </outline>
</glyph>
<glyph name="plus" format="2">
  <advance width="500"/>
  <unicode hex="002B"/>
  <outline>
    <contour>
      <point x="187.5" y="249.5" type="line"/>
      <point x="62.5" y="249.5" type="line"/>
      <point x="62.5" y="312" type="line"/>
      <point x="187.5" y="312" type="line"/>
      <point x="187.5" y="437" type="line"/>
      <point x="312.5" y="437" type="line"/>
      <point x="312.5" y="312" type="line"/>
      <point x="437.5" y="312" type="line"/>
      <point x="437.5" y="249.5" type="line"/>
      <point x="375" y="249.5" type="line"/>
      <point x="312.5" y="249.5" type="line"/>
      <point x="312.5" y="124.5" type="line"/>
      <point x="187.5" y="124.5" type="line"/>
    </contour>
  </outline>
</glyph>
<glyph name="comma" format="2">
  <advance width="500"/>
  <unicode hex="002C"/>
  <outline>
    <contour>
      <point x="187.5" y="-0.5" type="line"/>
      <point x="187.5" y="187" type="line"/>
      <point x="312.5" y="187" type="line"/>
      <point x="312.5" y="-0.5" type="line"/>
      <point x="250" y="-0.5" type="line"/>
      <point x="250" y="-63" type="line"/>
      <point x="125" y="-63" type="line"/>
      <point x="125" y="-0.5" type="line"/>
    </contour>
  </outline>
</glyph>
<glyph name="hyphen" format="2">
  <advance width="500"/>
  <unicode hex="002D"/>
  <outline>
    <contour>
      <point x="0" y="249.5" type="line"/>
      <point x="0" y="312" type="line"/>
      <point x="312.5" y="312" type="line"/>
      <point x="437.5" y="312" type="line"/>
      <point x="437.5" y="249.5" type="line"/>
      <point x="312.5" y="249.5" type="line"/>
    </contour>
  </outline>
</glyph>
<glyph name="period" format="2">
  <advance width="500"/>
  <unicode hex="002E"/>
  <outline>
    <contour>
      <point x="187.5" y="-0.5" type="line"/>
      <point x="187.5" y="124.5" type="line"/>
      <point x="312.5" y="124.5" type="line"/>
      <point x="312.5" y="-0.5" type="line"/>
    </contour>
  </outline>
</glyph>
<glyph name="one" format="2">
  <advance width="500"/>
  <unicode hex="0031"/>
  <outline>
    <contour>
      <point x="187.5" y="437" type="line"/>
      <point x="62.5" y="437" type="line"/>
      <point x="62.5" y="499.5" type="line"/>
      <point x="125" y="499.5" type="line"/>
      <point x="125" y="562" type="line"/>
      <point x="187.5" y="562" type="line"/>
      <point x="187.5" y="624.5" type="line"/>
      <point x="312.5" y="624.5" type="line"/>
      <point x="312.5" y="62" type="line"/>
      <point x="437.5" y="62" type="line"/>
      <point x="437.5" y="-0.5" type="line"/>
      <point x="62.5" y="-0.5" type="line"/>
      <point x="62.5" y="62" type="line"/>
      <point x="187.5" y="62" type="line"/>
    </contour>
  </outline>
</glyph>
<glyph name="seven" format="2">
  <advance width="500"/>
  <unicode hex="0037"/>
  <outline>
    <contour>
      <point x="125" y="249.5" type="line"/>
      <point x="187.5" y="249.5" type="line"/>
      <point x="187.5" y="312" type="line"/>
      <point x="250" y="312" type="line"/>
      <point x="250" y="374.5" type="line"/>
      <point x="312.5" y="374.5" type="line"/>
      <point x="312.5" y="562" type="line"/>
      <point x="125" y="562" type="line"/>
      <point x="125" y="499.5" type="line"/>
      <point x="0" y="499.5" type="line"/>
      <point x="0" y="624.5" type="line"/>
      <point x="312.5" y="624.5" type="line"/>
      <point x="437.5" y="624.5" type="line"/>
      <point x="437.5" y="374.5" type="line"/>
      <point x="375" y="374.5" type="line"/>
      <point x="375" y="312" type="line"/>
      <point x="312.5" y="312" type="line"/>
      <point x="312.5" y="249.5" type="line"/>
      <point x="250" y="249.5" type="line"/>
      <point x="250" y="-0.5" type="line"/>
      <point x="125" y="-0.5" type="line"/>
    </contour>
  </outline>
</glyph>
<glyph name="colon" format="2">
  <advance width="500"/>
  <unicode hex="003A"/>
  <outline>
    <contour>
      <point x="312.5" y="499.5" type="line"/>
      <point x="312.5" y="374.5" type="line"/>
      <point x="187.5" y="374.5" type="line"/>
      <point x="187.5" y="499.5" type="line"/>
    </contour>
    <contour>
      <point x="312.5" y="187" type="line"/>
      <point x="312.5" y="62" type="line"/>
      <point x="187.5" y="62" type="line"/>
      <point x="187.5" y="187" type="line"/>
    </contour>
  </outline>
</glyph>
<glyph name="semicolon" format="2">
  <advance width="500"/>
  <unicode hex="003B"/>
  <outline>
    <contour>
      <point x="187.5" y="187" type="line"/>
      <point x="312.5" y="187" type="line"/>
      <point x="312.5" y="124.5" type="line"/>
      <point x="312.5" y="62" type="line"/>
      <point x="250" y="62" type="line"/>
      <point x="250" y="-0.5" type="line"/>
      <point x="125" y="-0.5" type="line"/>
      <point x="125" y="62" type="line"/>
      <point x="187.5" y="62" type="line"/>
      <point x="187.5" y="124.5" type="line"/>
    </contour>
    <contour>
      <point x="312.5" y="499.5" type="line"/>
      <point x="312.5" y="374.5" type="line"/>
      <point x="187.5" y="374.5" type="line"/>
      <point x="187.5" y="499.5" type="line"/>
    </contour>
  </outline>
</glyph>
<glyph name="equal" format="2">
  <advance width="500"/>
  <unicode hex="003D"/>
  <outline>
    <contour>
      <point x="62.5" y="374.5" type="line"/>
      <point x="62.5" y="437" type="line"/>
      <point x="375" y="437" type="line"/>
      <point x="437.5" y="437" type="line"/>
      <point x="437.5" y="374.5" type="line"/>
      <point x="375" y="374.5" type="line"/>
    </contour>
    <contour>
      <point x="437.5" y="249.5" type="line"/>
      <point x="437.5" y="187" type="line"/>
      <point x="62.5" y="187" type="line"/>
      <point x="62.5" y="249.5" type="line"/>
    </contour>
  </outline>
</glyph>
<glyph name="at" format="2">
  <advance width="500"/>
  <unicode hex="0040"/>
  <outline>
    <contour>
      <point x="187.5" y="374.5" type="line"/>
      <point x="312.5" y="374.5" type="line"/>
      <point x="312.5" y="499.5" type="line"/>
      <point x="125" y="499.5" type="line"/>
      <point x="125" y="62" type="line"/>
      <point x="375" y="62" type="line"/>
      <point x="375" y="-0.5" type="line"/>
      <point x="62.5" y="-0.5" type="line"/>
      <point x="62.5" y="62" type="line"/>
      <point x="0" y="62" type="line"/>
      <point x="0" y="499.5" type="line"/>
      <point x="62.5" y="499.5" type="line"/>
      <point x="62.5" y="562" type="line"/>
      <point x="375" y="562" type="line"/>
      <point x="375" y="499.5" type="line"/>
      <point x="437.5" y="499.5" type="line"/>
      <point x="437.5" y="187" type="line"/>
      <point x="375" y="187" type="line"/>
      <point x="375" y="124.5" type="line"/>
      <point x="187.5" y="124.5" type="line"/>
    </contour>
  </outline>
</glyph>
<glyph name="A" format="2">
  <advance width="500"/>
  <unicode hex="0041"/>
  <outline>
    <contour>
      <point x="187.5" y="249.5" type="line"/>
      <point x="125" y="249.5" type="line"/>
      <point x="125" y="-0.5" type="line"/>
      <point x="0" y="-0.5" type="line"/>
      <point x="0" y="437" type="line"/>
      <point x="62.5" y="437" type="line"/>
      <point x="62.5" y="499.5" type="line"/>
      <point x="125" y="499.5" type="line"/>
      <point x="125" y="562" type="line"/>
      <point x="187.5" y="562" type="line"/>
      <point x="187.5" y="624.5" type="line"/>
      <point x="250" y="624.5" type="line"/>
      <point x="250" y="562" type="line"/>
      <point x="312.5" y="562" type="line"/>
      <point x="312.5" y="499.5" type="line"/>
      <point x="375" y="499.5" type="line"/>
      <point x="375" y="437" type="line"/>
      <point x="437.5" y="437" type="line"/>
      <point x="437.5" y="124.5" type="line"/>
      <point x="437.5" y="-0.5" type="line"/>
      <point x="312.5" y="-0.5" type="line"/>
      <point x="312.5" y="187" type="line"/>
      <point x="312.5" y="249.5" type="line"/>
    </contour>
    <contour>
      <point x="187.5" y="437" type="line"/>
      <point x="125" y="437" type="line"/>
      <point x="125" y="374.5" type="line"/>
      <point x="125" y="312" type="line"/>
      <point x="312.5" y="312" type="line"/>
      <point x="312.5" y="437" type="line"/>
      <point x="250" y="437" type="line"/>
      <point x="250" y="499.5" type="line"/>
      <point x="187.5" y="499.5" type="line"/>
    </contour>
  </outline>
</glyph>
<glyph name="F" format="2">
  <advance width="500"/>
  <unicode hex="0046"/>
  <outline>
    <contour>
      <point x="0" y="-0.5" type="line"/>
      <point x="0" y="62" type="line"/>
      <point x="62.5" y="62" type="line"/>
      <point x="62.5" y="562" type="line"/>
      <point x="0" y="562" type="line"/>
      <point x="0" y="624.5" type="line"/>
      <point x="437.5" y="624.5" type="line"/>
      <point x="437.5" y="437" type="line"/>
      <point x="375" y="437" type="line"/>
      <point x="375" y="499.5" type="line"/>
      <point x="312.5" y="499.5" type="line"/>
      <point x="312.5" y="562" type="line"/>
      <point x="187.5" y="562" type="line"/>
      <point x="187.5" y="374.5" type="line"/>
      <point x="250" y="374.5" type="line"/>
      <point x="250" y="437" type="line"/>
      <point x="312.5" y="437" type="line"/>
      <point x="312.5" y="249.5" type="line"/>
      <point x="250" y="249.5" type="line"/>
      <point x="250" y="312" type="line"/>
      <point x="187.5" y="312" type="line"/>
      <point x="187.5" y="62" type="line"/>
      <point x="250" y="62" type="line"/>
      <point x="250" y="-0.5" type="line"/>
    </contour>
  </outline>
</glyph>
<glyph name="H" format="2">
  <advance width="500"/>
  <unicode hex="0048"/>
  <outline>
    <contour>
      <point x="0" y="624.5" type="line"/>
      <point x="125" y="624.5" type="line"/>
      <point x="125" y="374.5" type="line"/>
      <point x="312.5" y="374.5" type="line"/>
      <point x="312.5" y="624.5" type="line"/>
      <point x="437.5" y="624.5" type="line"/>
      <point x="437.5" y="-0.5" type="line"/>
      <point x="312.5" y="-0.5" type="line"/>
      <point x="312.5" y="312" type="line"/>
      <point x="125" y="312" type="line"/>
      <point x="125" y="-0.5" type="line"/>
      <point x="0" y="-0.5" type="line"/>
    </contour>
  </outline>
</glyph>
<glyph name="J" format="2">
  <advance width="500"/>
  <unicode hex="004A"/>
  <outline>
    <contour>
      <point x="0" y="62" type="line"/>
      <point x="0" y="249.5" type="line"/>
      <point x="125" y="249.5" type="line"/>
      <point x="125" y="62" type="line"/>
      <point x="250" y="62" type="line"/>
      <point x="250" y="562" type="line"/>
      <point x="187.5" y="562" type="line"/>
      <point x="187.5" y="624.5" type="line"/>
      <point x="437.5" y="624.5" type="line"/>
      <point x="437.5" y="562" type="line"/>
      <point x="375" y="562" type="line"/>
      <point x="375" y="499.5" type="line"/>
      <point x="375" y="62" type="line"/>
      <point x="312.5" y="62" type="line"/>
      <point x="312.5" y="-0.5" type="line"/>
      <point x="125" y="-0.5" type="line"/>
      <point x="62.5" y="-0.5" type="line"/>
      <point x="62.5" y="62" type="line"/>
    </contour>
  </outline>
</glyph>
<glyph name="Q" format="2">
  <advance width="500"/>
  <unicode hex="0051"/>
  <outline>
    <contour>
      <point x="375" y="-63" type="line"/>
      <point x="437.5" y="-63" type="line"/>
      <point x="437.5" y="-125.5" type="line"/>
      <point x="250" y="-125.5" type="line"/>
      <point x="250" y="-0.5" type="line"/>
      <point x="62.5" y="-0.5" type="line"/>
      <point x="62.5" y="62" type="line"/>
      <point x="0" y="62" type="line"/>
      <point x="0" y="562" type="line"/>
      <point x="62.5" y="562" type="line"/>
      <point x="62.5" y="624.5" type="line"/>
      <point x="125" y="624.5" type="line"/>
      <point x="375" y="624.5" type="line"/>
      <point x="375" y="562" type="line"/>
      <point x="437.5" y="562" type="line"/>
      <point x="437.5" y="187" type="line"/>
      <point x="437.5" y="62" type="line"/>
      <point x="375" y="62" type="line"/>
    </contour>
    <contour>
      <point x="187.5" y="187" type="line"/>
      <point x="250" y="187" type="line"/>
      <point x="250" y="124.5" type="line"/>
      <point x="312.5" y="124.5" type="line"/>
      <point x="312.5" y="562" type="line"/>
      <point x="125" y="562" type="line"/>
      <point x="125" y="62" type="line"/>
      <point x="187.5" y="62" type="line"/>
    </contour>
  </outline>
</glyph>
<glyph name="U" format="2">
  <advance width="500"/>
  <unicode hex="0055"/>
  <outline>
    <contour>
      <point x="0" y="62" type="line"/>
      <point x="0" y="624.5" type="line"/>
      <point x="125" y="624.5" type="line"/>
      <point x="125" y="62" type="line"/>
      <point x="312.5" y="62" type="line"/>
      <point x="312.5" y="624.5" type="line"/>
      <point x="437.5" y="624.5" type="line"/>
      <point x="437.5" y="62" type="line"/>
      <point x="375" y="62" type="line"/>
      <point x="375" y="-0.5" type="line"/>
      <point x="62.5" y="-0.5" type="line"/>
      <point x="62.5" y="62" type="line"/>
    </contour>
  </outline>
</glyph>
<glyph name="W" format="2">
  <advance width="500"/>
  <unicode hex="0057"/>
  <outline>
    <contour>
      <point x="187.5" y="187" type="line"/>
      <point x="187.5" y="374.5" type="line"/>
      <point x="250" y="374.5" type="line"/>
      <point x="250" y="187" type="line"/>
      <point x="312.5" y="187" type="line"/>
      <point x="312.5" y="624.5" type="line"/>
      <point x="437.5" y="624.5" type="line"/>
      <point x="437.5" y="62" type="line"/>
      <point x="375" y="62" type="line"/>
      <point x="375" y="-0.5" type="line"/>
      <point x="250" y="-0.5" type="line"/>
      <point x="250" y="124.5" type="line"/>
      <point x="187.5" y="124.5" type="line"/>
      <point x="187.5" y="-0.5" type="line"/>
      <point x="125" y="-0.5" type="line"/>
      <point x="62.5" y="-0.5" type="line"/>
      <point x="62.5" y="62" type="line"/>
      <point x="0" y="62" type="line"/>
      <point x="0" y="624.5" type="line"/>
      <point x="125" y="624.5" type="line"/>
      <point x="125" y="374.5" type="line"/>
      <point x="125" y="187" type="line"/>
    </contour>
  </outline>
</glyph>
<glyph name="bracketleft" format="2">
  <advance width="500"/>
  <unicode hex="005B"/>
  <outline>
    <contour>
      <point x="250" y="62" type="line"/>
      <point x="375" y="62" type="line"/>
      <point x="375" y="-0.5" type="line"/>
      <point x="125" y="-0.5" type="line"/>
      <point x="125" y="624.5" type="line"/>
      <point x="375" y="624.5" type="line"/>
      <point x="375" y="562" type="line"/>
      <point x="250" y="562" type="line"/>
      <point x="250" y="374.5" type="line"/>
    </contour>
  </outline>
</glyph>
<glyph name="bracketright" format="2">
  <advance width="500"/>
  <unicode hex="005D"/>
  <outline>
    <contour>
      <point x="375" y="-0.5" type="line"/>
      <point x="125" y="-0.5" type="line"/>
      <point x="125" y="62" type="line"/>
      <point x="250" y="62" type="line"/>
      <point x="250" y="562" type="line"/>
      <point x="125" y="562" type="line"/>
      <point x="125" y="624.5" type="line"/>
      <point x="375" y="624.5" type="line"/>
      <point x="375" y="437" type="line"/>
    </contour>
  </outline>
</glyph>
<glyph name="asciicircum" format="2">
  <advance width="500"/>
  <unicode hex="005E"/>
  <outline>
    <contour>
      <point x="187.5" y="624.5" type="line"/>
      <point x="187.5" y="562" type="line"/>
      <point x="125" y="562" type="line"/>
      <point x="125" y="499.5" type="line"/>
      <point x="0" y="499.5" type="line"/>
      <point x="0" y="562" type="line"/>
      <point x="62.5" y="562" type="line"/>
      <point x="62.5" y="624.5" type="line"/>
      <point x="125" y="624.5" type="line"/>
      <point x="125" y="687" type="line"/>
      <point x="187.5" y="687" type="line"/>
      <point x="187.5" y="749.5" type="line"/>
      <point x="250" y="749.5" type="line"/>
      <point x="250" y="687" type="line"/>
      <point x="312.5" y="687" type="line"/>
      <point x="312.5" y="624.5" type="line"/>
      <point x="375" y="624.5" type="line"/>
      <point x="375" y="562" type="line"/>
      <point x="437.5" y="562" type="line"/>
      <point x="437.5" y="499.5" type="line"/>
      <point x="375" y="499.5" type="line"/>
      <point x="312.5" y="499.5" type="line"/>
      <point x="312.5" y="562" type="line"/>
      <point x="250" y="562" type="line"/>
      <point x="250" y="624.5" type="line"/>
    </contour>
  </outline>
</glyph>
<glyph name="underscore" format="2">
  <advance width="500"/>
  <unicode hex="005F"/>
  <outline>
    <contour>
      <point x="0" y="-125.5" type="line"/>
      <point x="0" y="-63" type="line"/>
      <point x="375" y="-63" type="line"/>
      <point x="500" y="-63" type="line"/>
      <point x="500" y="-125.5" type="line"/>
      <point x="375" y="-125.5" type="line"/>
    </contour>
  </outline>
</glyph>
<glyph name="grave" format="2">
  <advance width="500"/>
  <unicode hex="0060"/>
  <outline>
    <contour>
      <point x="125" y="749.5" type="line"/>
      <point x="250" y="749.5" type="line"/>
      <point x="250" y="687" type="line"/>
      <point x="250" y="624.5" type="line"/>
      <point x="312.5" y="624.5" type="line"/>
      <point x="312.5" y="562" type="line"/>
      <point x="187.5" y="562" type="line"/>
      <point x="187.5" y="624.5" type="line"/>
      <point x="125" y="624.5" type="line"/>
      <point x="125" y="687" type="line"/>
    </contour>
  </outline>
</glyph>
<glyph name="g" format="2">
  <advance width="500"/>
  <unicode hex="0067"/>
  <outline>
    <contour>
      <point x="0" y="62" type="line"/>
      <point x="0" y="374.5" type="line"/>
      <point x="62.5" y="374.5" type="line"/>
      <point x="62.5" y="437" type="line"/>
      <point x="250" y="437" type="line"/>
      <point x="250" y="374.5" type="line"/>
      <point x="312.5" y="374.5" type="line"/>
      <point x="312.5" y="437" type="line"/>
      <point x="437.5" y="437" type="line"/>
      <point x="437.5" y="374.5" type="line"/>
      <point x="375" y="374.5" type="line"/>
      <point x="375" y="124.5" type="line"/>
      <point x="375" y="-125.5" type="line"/>
      <point x="312.5" y="-125.5" type="line"/>
      <point x="312.5" y="-188" type="line"/>
      <point x="62.5" y="-188" type="line"/>
      <point x="62.5" y="-125.5" type="line"/>
      <point x="0" y="-125.5" type="line"/>
      <point x="0" y="-63" type="line"/>
      <point x="125" y="-63" type="line"/>
      <point x="125" y="-125.5" type="line"/>
      <point x="250" y="-125.5" type="line"/>
      <point x="250" y="-0.5" type="line"/>
      <point x="62.5" y="-0.5" type="line"/>
      <point x="62.5" y="62" type="line"/>
    </contour>
    <contour>
      <point x="125" y="62" type="line"/>
      <point x="250" y="62" type="line"/>
      <point x="250" y="374.5" type="line"/>
      <point x="125" y="374.5" type="line"/>
    </contour>
  </outline>
</glyph>
<glyph name="j" format="2">
  <advance width="500"/>
  <unicode hex="006A"/>
  <outline>
    <contour>
      <point x="125" y="-125.5" type="line"/>
      <point x="62.5" y="-125.5" type="line"/>
      <point x="62.5" y="-0.5" type="line"/>
      <point x="187.5" y="-0.5" type="line"/>
      <point x="187.5" y="-125.5" type="line"/>
      <point x="312.5" y="-125.5" type="line"/>
      <point x="312.5" y="187" type="line"/>
      <point x="312.5" y="374.5" type="line"/>
      <point x="250" y="374.5" type="line"/>
      <point x="250" y="437" type="line"/>
      <point x="437.5" y="437" type="line"/>
      <point x="437.5" y="312" type="line"/>
      <point x="437.5" y="-125.5" type="line"/>
      <point x="375" y="-125.5" type="line"/>
      <point x="375" y="-188" type="line"/>
      <point x="250" y="-188" type="line"/>
      <point x="125" y="-188" type="line"/>
    </contour>
    <contour>
      <point x="312.5" y="624.5" type="line"/>
      <point x="437.5" y="624.5" type="line"/>
      <point x="437.5" y="499.5" type="line"/>
      <point x="312.5" y="499.5" type="line"/>
    </contour>
  </outline>
</glyph>
<glyph name="l" format="2">
  <advance width="500"/>
  <unicode hex="006C"/>
  <outline>
    <contour>
      <point x="187.5" y="562" type="line"/>
      <point x="125" y="562" type="line"/>
      <point x="125" y="624.5" type="line"/>
      <point x="312.5" y="624.5" type="line"/>
      <point x="312.5" y="62" type="line"/>
      <point x="375" y="62" type="line"/>
      <point x="375" y="-0.5" type="line"/>
      <point x="125" y="-0.5" type="line"/>
      <point x="125" y="62" type="line"/>
      <point x="187.5" y="62" type="line"/>
    </contour>
  </outline>
</glyph>
<glyph name="m" format="2">
  <advance width="500"/>
  <unicode hex="006D"/>
  <outline>
    <contour>
      <point x="187.5" y="312" type="line"/>
      <point x="125" y="312" type="line"/>
      <point x="125" y="-0.5" type="line"/>
      <point x="0" y="-0.5" type="line"/>
      <point x="0" y="437" type="line"/>
      <point x="187.5" y="437" type="line"/>
      <point x="187.5" y="374.5" type="line"/>
      <point x="250" y="374.5" type="line"/>
      <point x="250" y="437" type="line"/>
      <point x="375" y="437" type="line"/>
      <point x="375" y="374.5" type="line"/>
      <point x="437.5" y="374.5" type="line"/>
      <point x="437.5" y="62" type="line"/>
      <point x="437.5" y="-0.5" type="line"/>
      <point x="312.5" y="-0.5" type="line"/>
      <point x="312.5" y="62" type="line"/>
      <point x="312.5" y="312" type="line"/>
      <point x="250" y="312" type="line"/>
      <point x="250" y="62" type="line"/>
      <point x="187.5" y="62" type="line"/>
    </contour>
  </outline>
</glyph>
<glyph name="t" format="2">
  <advance width="500"/>
  <unicode hex="0074"/>
  <outline>
    <contour>
      <point x="187.5" y="-0.5" type="line"/>
      <point x="187.5" y="62" type="line"/>
      <point x="125" y="62" type="line"/>
      <point x="125" y="374.5" type="line"/>
      <point x="0" y="374.5" type="line"/>
      <point x="0" y="437" type="line"/>
      <point x="125" y="437" type="line"/>
      <point x="125" y="562" type="line"/>
      <point x="187.5" y="562" type="line"/>
      <point x="187.5" y="624.5" type="line"/>
      <point x="250" y="624.5" type="line"/>
      <point x="250" y="437" type="line"/>
      <point x="375" y="437" type="line"/>
      <point x="375" y="374.5" type="line"/>
      <point x="250" y="374.5" type="line"/>
      <point x="250" y="312" type="line"/>
      <point x="250" y="62" type="line"/>
      <point x="312.5" y="62" type="line"/>
      <point x="312.5" y="124.5" type="line"/>
      <point x="437.5" y="124.5" type="line"/>
      <point x="437.5" y="62" type="line"/>
      <point x="375" y="62" type="line"/>
      <point x="375" y="-0.5" type="line"/>
      <point x="250" y="-0.5" type="line"/>
    </contour>
  </outline>
</glyph>
<glyph name="v" format="2">
  <advance width="500"/>
  <unicode hex="0076"/>
  <outline>
    <contour>
      <point x="187.5" y="-0.5" type="line"/>
      <point x="187.5" y="62" type="line"/>
      <point x="125" y="62" type="line"/>
      <point x="125" y="124.5" type="line"/>
      <point x="62.5" y="124.5" type="line"/>
      <point x="62.5" y="437" type="line"/>
      <point x="187.5" y="437" type="line"/>
      <point x="187.5" y="124.5" type="line"/>
      <point x="312.5" y="124.5" type="line"/>
      <point x="312.5" y="312" type="line"/>
      <point x="312.5" y="437" type="line"/>
      <point x="437.5" y="437" type="line"/>
      <point x="437.5" y="374.5" type="line"/>
      <point x="437.5" y="124.5" type="line"/>
      <point x="375" y="124.5" type="line"/>
      <point x="375" y="62" type="line"/>
      <point x="312.5" y="62" type="line"/>
      <point x="312.5" y="-0.5" type="line"/>
    </contour>
  </outline>
</glyph>
<glyph name="x" format="2">
  <advance width="500"/>
  <unicode hex="0078"/>
  <outline>
    <contour>
      <point x="250" y="124.5" type="line"/>
      <point x="187.5" y="124.5" type="line"/>
      <point x="187.5" y="62" type="line"/>
      <point x="125" y="62" type="line"/>
      <point x="125" y="-0.5" type="line"/>
      <point x="0" y="-0.5" type="line"/>
      <point x="0" y="62" type="line"/>
      <point x="62.5" y="62" type="line"/>
      <point x="62.5" y="124.5" type="line"/>
      <point x="125" y="124.5" type="line"/>
      <point x="125" y="312" type="line"/>
      <point x="62.5" y="312" type="line"/>
      <point x="62.5" y="374.5" type="line"/>
      <point x="0" y="374.5" type="line"/>
      <point x="0" y="437" type="line"/>
      <point x="125" y="437" type="line"/>
      <point x="125" y="374.5" type="line"/>
      <point x="187.5" y="374.5" type="line"/>
      <point x="187.5" y="312" type="line"/>
      <point x="250" y="312" type="line"/>
      <point x="250" y="374.5" type="line"/>
      <point x="312.5" y="374.5" type="line"/>
      <point x="312.5" y="437" type="line"/>
      <point x="437.5" y="437" type="line"/>
      <point x="437.5" y="374.5" type="line"/>
      <point x="375" y="374.5" type="line"/>
      <point x="375" y="312" type="line"/>
      <point x="312.5" y="312" type="line"/>
      <point x="312.5" y="124.5" type="line"/>
      <point x="375" y="124.5" type="line"/>
      <point x="375" y="62" type="line"/>
      <point x="437.5" y="62" type="line"/>
      <point x="437.5" y="-0.5" type="line"/>
      <point x="312.5" y="-0.5" type="line"/>
      <point x="312.5" y="62" type="line"/>
      <point x="250" y="62" type="line"/>
    </contour>
  </outline>
</glyph>
<glyph name="y" format="2">
  <advance width="500"/>
  <unicode hex="0079"/>
  <outline>
    <contour>
      <point x="0" y="62" type="line"/>
      <point x="0" y="437" type="line"/>
      <point x="125" y="437" type="line"/>
      <point x="125" y="62" type="line"/>
      <point x="312.5" y="62" type="line"/>
      <point x="312.5" y="437" type="line"/>
      <point x="437.5" y="437" type="line"/>
      <point x="437.5" y="-63" type="line"/>
      <point x="375" y="-63" type="line"/>
      <point x="375" y="-125.5" type="line"/>
      <point x="312.5" y="-125.5" type="line"/>
      <point x="312.5" y="-188" type="line"/>
      <point x="0" y="-188" type="line"/>
      <point x="0" y="-125.5" type="line"/>
      <point x="250" y="-125.5" type="line"/>
      <point x="250" y="-63" type="line"/>
      <point x="312.5" y="-63" type="line"/>
      <point x="312.5" y="-0.5" type="line"/>
      <point x="62.5" y="-0.5" type="line"/>
      <point x="62.5" y="62" type="line"/>
    </contour>
  </outline>
</glyph>
<glyph name="bar" format="2">
  <advance width="500"/>
  <unicode hex="007C"/>
  <outline>
    <contour>
      <point x="187.5" y="312" type="line"/>
      <point x="312.5" y="312" type="line"/>
      <point x="312.5" y="-0.5" type="line"/>
      <point x="187.5" y="-0.5" type="line"/>
    </contour>
    <contour>
      <point x="187.5" y="624.5" type="line"/>
      <point x="312.5" y="624.5" type="line"/>
      <point x="312.5" y="374.5" type="line"/>
      <point x="187.5" y="374.5" type="line"/>
    </contour>
  </outline>
</glyph>
<glyph name="braceright" format="2">
  <advance width="500"/>
  <unicode hex="007D"/>
  <outline>
    <contour>
      <point x="187.5" y="312" type="line"/>
      <point x="250" y="312" type="line"/>
      <point x="250" y="374.5" type="line"/>
      <point x="187.5" y="374.5" type="line"/>
      <point x="187.5" y="562" type="line"/>
      <point x="62.5" y="562" type="line"/>
      <point x="62.5" y="624.5" type="line"/>
      <point x="250" y="624.5" type="line"/>
      <point x="250" y="562" type="line"/>
      <point x="312.5" y="562" type="line"/>
      <point x="312.5" y="374.5" type="line"/>
      <point x="437.5" y="374.5" type="line"/>
      <point x="437.5" y="312" type="line"/>
      <point x="312.5" y="312" type="line"/>
      <point x="312.5" y="62" type="line"/>
      <point x="250" y="62" type="line"/>
      <point x="250" y="-0.5" type="line"/>
      <point x="125" y="-0.5" type="line"/>
      <point x="62.5" y="-0.5" type="line"/>
      <point x="62.5" y="62" type="line"/>
      <point x="125" y="62" type="line"/>
      <point x="187.5" y="62" type="line"/>
    </contour>
  </outline>
</glyph>
<glyph name="asciitilde" format="2">
  <advance width="500"/>
  <unicode hex="007E"/>
  <outline>
    <contour>
      <point x="187.5" y="499.5" type="line"/>
      <point x="187.5" y="562" type="line"/>
      <point x="125" y="562" type="line"/>
      <point x="125" y="499.5" type="line"/>
      <point x="0" y="499.5" type="line"/>
      <point x="0" y="562" type="line"/>
      <point x="62.5" y="562" type="line"/>
      <point x="62.5" y="624.5" type="line"/>
      <point x="187.5" y="624.5" type="line"/>
      <point x="250" y="624.5" type="line"/>
      <point x="250" y="562" type="line"/>
      <point x="312.5" y="562" type="line"/>
      <point x="312.5" y="624.5" type="line"/>
      <point x="437.5" y="624.5" type="line"/>
      <point x="437.5" y="562" type="line"/>
      <point x="375" y="562" type="line"/>
      <point x="375" y="499.5" type="line"/>
      <point x="312.5" y="499.5" type="line"/>
    </contour>
  </outline>
</glyph>
<glyph name="logicalnot" format="2">
  <advance width="500"/>
  <unicode hex="00AC"/>
  <outline>
    <contour>
      <point x="437.5" y="62" type="line"/>
      <point x="312.5" y="62" type="line"/>
      <point x="312.5" y="312" type="line"/>
      <point x="0" y="312" type="line"/>
      <point x="0" y="374.5" type="line"/>
      <point x="125" y="374.5" type="line"/>
      <point x="437.5" y="374.5" type="line"/>
    </contour>
  </outline>
</glyph>
<glyph name="plusminus" format="2">
  <advance width="500"/>
  <unicode hex="00B1"/>
  <outline>
    <contour>
      <point x="187.5" y="187" type="line"/>
      <point x="187.5" y="312" type="line"/>
      <point x="62.5" y="312" type="line"/>
      <point x="62.5" y="374.5" type="line"/>
      <point x="187.5" y="374.5" type="line"/>
      <point x="187.5" y="499.5" type="line"/>
      <point x="312.5" y="499.5" type="line"/>
      <point x="312.5" y="374.5" type="line"/>
      <point x="437.5" y="374.5" type="line"/>
      <point x="437.5" y="312" type="line"/>
      <point x="312.5" y="312" type="line"/>
      <point x="312.5" y="187" type="line"/>
    </contour>
    <contour>
      <point x="0" y="-0.5" type="line"/>
      <point x="0" y="62" type="line"/>
      <point x="375" y="62" type="line"/>
      <point x="500" y="62" type="line"/>
      <point x="500" y="-0.5" type="line"/>
      <point x="375" y="-0.5" type="line"/>
    </contour>
  </outline>
</glyph>
<glyph name="mu" format="2">
  <advance width="500"/>
  <unicode hex="00B5"/>
  <outline>
    <contour>
      <point x="187.5" y="187" type="line"/>
      <point x="312.5" y="187" type="line"/>
      <point x="312.5" y="499.5" type="line"/>
      <point x="437.5" y="499.5" type="line"/>
      <point x="437.5" y="187" type="line"/>
      <point x="375" y="187" type="line"/>
      <point x="375" y="124.5" type="line"/>
      <point x="187.5" y="124.5" type="line"/>
      <point x="187.5" y="-0.5" type="line"/>
      <point x="125" y="-0.5" type="line"/>
      <point x="125" y="-63" type="line"/>
      <point x="62.5" y="-63" type="line"/>
      <point x="0" y="-63" type="line"/>
      <point x="0" y="-0.5" type="line"/>
      <point x="62.5" y="-0.5" type="line"/>
      <point x="62.5" y="499.5" type="line"/>
      <point x="187.5" y="499.5" type="line"/>
    </contour>
  </outline>
</glyph>
<glyph name="paragraph" format="2">
  <advance width="500"/>
  <unicode hex="00B6"/>
  <outline>
    <contour>
      <point x="187.5" y="312" type="line"/>
      <point x="62.5" y="312" type="line"/>
      <point x="62.5" y="374.5" type="line"/>
      <point x="0" y="374.5" type="line"/>
      <point x="0" y="562" type="line"/>
      <point x="62.5" y="562" type="line"/>
      <point x="62.5" y="624.5" type="line"/>
      <point x="500" y="624.5" type="line"/>
      <point x="500" y="-0.5" type="line"/>
      <point x="375" y="-0.5" type="line"/>
      <point x="375" y="562" type="line"/>
      <point x="312.5" y="562" type="line"/>
      <point x="312.5" y="-0.5" type="line"/>
      <point x="187.5" y="-0.5" type="line"/>
    </contour>
    <contour>
      <point x="125" y="374.5" type="line"/>
      <point x="187.5" y="374.5" type="line"/>
      <point x="187.5" y="562" type="line"/>
      <point x="125" y="562" type="line"/>
    </contour>
  </outline>
</glyph>
<glyph name="periodcentered" format="2">
  <advance width="500"/>
  <unicode hex="00B7"/>
  <outline>
    <contour>
      <point x="187.5" y="187" type="line"/>
      <point x="187.5" y="249.5" type="line"/>
      <point x="250" y="249.5" type="line"/>
      <point x="312.5" y="249.5" type="line"/>
      <point x="312.5" y="187" type="line"/>
      <point x="250" y="187" type="line"/>
    </contour>
  </outline>
</glyph>
<glyph name="Adieresis" format="2">
  <advance width="500"/>
  <unicode hex="00C4"/>
  <outline>
    <contour>
      <point x="0" y="374.5" type="line"/>
      <point x="62.5" y="374.5" type="line"/>
      <point x="62.5" y="437" type="line"/>
      <point x="125" y="437" type="line"/>
      <point x="125" y="499.5" type="line"/>
      <point x="187.5" y="499.5" type="line"/>
      <point x="187.5" y="562" type="line"/>
      <point x="250" y="562" type="line"/>
      <point x="250" y="499.5" type="line"/>
      <point x="312.5" y="499.5" type="line"/>
      <point x="312.5" y="437" type="line"/>
      <point x="375" y="437" type="line"/>
      <point x="375" y="374.5" type="line"/>
      <point x="437.5" y="374.5" type="line"/>
      <point x="437.5" y="187" type="line"/>
      <point x="437.5" y="-0.5" type="line"/>
      <point x="312.5" y="-0.5" type="line"/>
      <point x="312.5" y="187" type="line"/>
      <point x="125" y="187" type="line"/>
      <point x="125" y="-0.5" type="line"/>
      <point x="0" y="-0.5" type="line"/>
    </contour>
    <contour>
      <point x="125" y="312" type="line"/>
      <point x="125" y="249.5" type="line"/>
      <point x="187.5" y="249.5" type="line"/>
      <point x="250" y="249.5" type="line"/>
      <point x="312.5" y="249.5" type="line"/>
      <point x="312.5" y="312" type="line"/>
      <point x="312.5" y="374.5" type="line"/>
      <point x="250" y="374.5" type="line"/>
      <point x="250" y="437" type="line"/>
      <point x="187.5" y="437" type="line"/>
      <point x="187.5" y="374.5" type="line"/>
      <point x="125" y="374.5" type="line"/>
    </contour>
    <contour>
      <point x="62.5" y="687" type="line"/>
      <point x="125" y="687" type="line"/>
      <point x="125" y="624.5" type="line"/>
      <point x="62.5" y="624.5" type="line"/>
      <point x="0" y="624.5" type="line"/>
      <point x="0" y="687" type="line"/>
    </contour>
    <contour>
      <point x="437.5" y="624.5" type="line"/>
      <point x="312.5" y="624.5" type="line"/>
      <point x="312.5" y="687" type="line"/>
      <point x="437.5" y="687" type="line"/>
    </contour>
  </outline>
</glyph>
<glyph name="Ccedilla" format="2">
  <advance width="500"/>
  <unicode hex="00C7"/>
  <outline>
    <contour>
      <point x="125" y="187" type="line"/>
      <point x="187.5" y="187" type="line"/>
      <point x="187.5" y="124.5" type="line"/>
      <point x="250" y="124.5" type="line"/>
      <point x="312.5" y="124.5" type="line"/>
      <point x="312.5" y="187" type="line"/>
      <point x="375" y="187" type="line"/>
      <point x="375" y="249.5" type="line"/>
      <point x="437.5" y="249.5" type="line"/>
      <point x="437.5" y="187" type="line"/>
      <point x="437.5" y="124.5" type="line"/>
      <point x="375" y="124.5" type="line"/>
      <point x="375" y="62" type="line"/>
      <point x="375" y="-0.5" type="line"/>
      <point x="437.5" y="-0.5" type="line"/>
      <point x="437.5" y="-63" type="line"/>
      <point x="375" y="-63" type="line"/>
      <point x="375" y="-125.5" type="line"/>
      <point x="312.5" y="-125.5" type="line"/>
      <point x="62.5" y="-125.5" type="line"/>
      <point x="62.5" y="-63" type="line"/>
      <point x="250" y="-63" type="line"/>
      <point x="312.5" y="-63" type="line"/>
      <point x="312.5" y="-0.5" type="line"/>
      <point x="250" y="-0.5" type="line"/>
      <point x="250" y="62" type="line"/>
      <point x="125" y="62" type="line"/>
      <point x="125" y="124.5" type="line"/>
      <point x="62.5" y="124.5" type="line"/>
      <point x="62.5" y="187" type="line"/>
      <point x="0" y="187" type="line"/>
      <point x="0" y="499.5" type="line"/>
      <point x="62.5" y="499.5" type="line"/>
      <point x="62.5" y="562" type="line"/>
      <point x="125" y="562" type="line"/>
      <point x="125" y="624.5" type="line"/>
      <point x="375" y="624.5" type="line"/>
      <point x="375" y="562" type="line"/>
      <point x="437.5" y="562" type="line"/>
      <point x="437.5" y="437" type="line"/>
      <point x="375" y="437" type="line"/>
      <point x="375" y="499.5" type="line"/>
      <point x="312.5" y="499.5" type="line"/>
      <point x="312.5" y="562" type="line"/>
      <point x="187.5" y="562" type="line"/>
      <point x="187.5" y="499.5" type="line"/>
      <point x="125" y="499.5" type="line"/>
    </contour>
  </outline>
</glyph>
<glyph name="Ntilde" format="2">
  <advance width="500"/>
  <unicode hex="00D1"/>
  <outline>
    <contour>
      <point x="0" y="62" type="line"/>
      <point x="0" y="562" type="line"/>
      <point x="125" y="562" type="line"/>
      <point x="125" y="499.5" type="line"/>
      <point x="187.5" y="499.5" type="line"/>
      <point x="187.5" y="437" type="line"/>
      <point x="250" y="437" type="line"/>
      <point x="250" y="374.5" type="line"/>
      <point x="312.5" y="374.5" type="line"/>
      <point x="312.5" y="499.5" type="line"/>
      <point x="312.5" y="562" type="line"/>
      <point x="437.5" y="562" type="line"/>
      <point x="437.5" y="249.5" type="line"/>
      <point x="437.5" y="-0.5" type="line"/>
      <point x="312.5" y="-0.5" type="line"/>
      <point x="312.5" y="187" type="line"/>
      <point x="250" y="187" type="line"/>
      <point x="250" y="249.5" type="line"/>
      <point x="187.5" y="249.5" type="line"/>
      <point x="187.5" y="312" type="line"/>
      <point x="125" y="312" type="line"/>
      <point x="125" y="62" type="line"/>
      <point x="125" y="-0.5" type="line"/>
      <point x="0" y="-0.5" type="line"/>
    </contour>
    <contour>
      <point x="187.5" y="624.5" type="line"/>
      <point x="187.5" y="687" type="line"/>
      <point x="125" y="687" type="line"/>
      <point x="125" y="624.5" type="line"/>
      <point x="0" y="624.5" type="line"/>
      <point x="0" y="687" type="line"/>
      <point x="62.5" y="687" type="line"/>
      <point x="62.5" y="749.5" type="line"/>
      <point x="125" y="749.5" type="line"/>
      <point x="187.5" y="749.5" type="line"/>
      <point x="250" y="749.5" type="line"/>
      <point x="250" y="687" type="line"/>
      <point x="312.5" y="687" type="line"/>
      <point x="312.5" y="749.5" type="line"/>
      <point x="375" y="749.5" type="line"/>
      <point x="437.5" y="749.5" type="line"/>
      <point x="437.5" y="687" type="line"/>
      <point x="375" y="687" type="line"/>
      <point x="375" y="624.5" type="line"/>
    </contour>
  </outline>
</glyph>
<glyph name="Odieresis" format="2">
  <advance width="500"/>
  <unicode hex="00D6"/>
  <outline>
    <contour>
      <point x="0" y="62" type="line"/>
      <point x="0" y="499.5" type="line"/>
      <point x="62.5" y="499.5" type="line"/>
      <point x="62.5" y="562" type="line"/>
      <point x="375" y="562" type="line"/>
      <point x="375" y="499.5" type="line"/>
      <point x="437.5" y="499.5" type="line"/>
      <point x="437.5" y="62" type="line"/>
      <point x="375" y="62" type="line"/>
      <point x="375" y="-0.5" type="line"/>
      <point x="62.5" y="-0.5" type="line"/>
      <point x="62.5" y="62" type="line"/>
    </contour>
    <contour>
      <point x="312.5" y="62" type="line"/>
      <point x="312.5" y="499.5" type="line"/>
      <point x="125" y="499.5" type="line"/>
      <point x="125" y="62" type="line"/>
    </contour>
    <contour>
      <point x="62.5" y="687" type="line"/>
      <point x="125" y="687" type="line"/>
      <point x="125" y="624.5" type="line"/>
      <point x="62.5" y="624.5" type="line"/>
      <point x="0" y="624.5" type="line"/>
      <point x="0" y="687" type="line"/>
    </contour>
    <contour>
      <point x="437.5" y="624.5" type="line"/>
      <point x="312.5" y="624.5" type="line"/>
      <point x="312.5" y="687" type="line"/>
      <point x="437.5" y="687" type="line"/>
    </contour>
  </outline>
</glyph>
<glyph name="ccedilla" format="2">
  <advance width="500"/>
  <unicode hex="00E7"/>
  <outline>
    <contour>
      <point x="187.5" y="187" type="line"/>
      <point x="312.5" y="187" type="line"/>
      <point x="312.5" y="249.5" type="line"/>
      <point x="437.5" y="249.5" type="line"/>
      <point x="437.5" y="187" type="line"/>
      <point x="375" y="187" type="line"/>
      <point x="375" y="62" type="line"/>
      <point x="437.5" y="62" type="line"/>
      <point x="437.5" y="-0.5" type="line"/>
      <point x="375" y="-0.5" type="line"/>
      <point x="375" y="-63" type="line"/>
      <point x="312.5" y="-63" type="line"/>
      <point x="250" y="-63" type="line"/>
      <point x="125" y="-63" type="line"/>
      <point x="125" y="-0.5" type="line"/>
      <point x="250" y="-0.5" type="line"/>
      <point x="312.5" y="-0.5" type="line"/>
      <point x="312.5" y="62" type="line"/>
      <point x="250" y="62" type="line"/>
      <point x="250" y="124.5" type="line"/>
      <point x="125" y="124.5" type="line"/>
      <point x="125" y="187" type="line"/>
      <point x="62.5" y="187" type="line"/>
      <point x="62.5" y="249.5" type="line"/>
      <point x="62.5" y="312" type="line"/>
      <point x="62.5" y="437" type="line"/>
      <point x="125" y="437" type="line"/>
      <point x="125" y="499.5" type="line"/>
      <point x="375" y="499.5" type="line"/>
      <point x="375" y="437" type="line"/>
      <point x="437.5" y="437" type="line"/>
      <point x="437.5" y="374.5" type="line"/>
      <point x="312.5" y="374.5" type="line"/>
      <point x="312.5" y="437" type="line"/>
      <point x="187.5" y="437" type="line"/>
      <point x="187.5" y="374.5" type="line"/>
    </contour>
  </outline>
</glyph>
<glyph name="eacute" format="2">
  <advance width="500"/>
  <unicode hex="00E9"/>
  <outline>
    <contour>
      <point x="125" y="249.5" type="line"/>
      <point x="125" y="62" type="line"/>
      <point x="312.5" y="62" type="line"/>
      <point x="312.5" y="124.5" type="line"/>
      <point x="437.5" y="124.5" type="line"/>
      <point x="437.5" y="62" type="line"/>
      <point x="375" y="62" type="line"/>
      <point x="375" y="-0.5" type="line"/>
      <point x="62.5" y="-0.5" type="line"/>
      <point x="62.5" y="62" type="line"/>
      <point x="0" y="62" type="line"/>
      <point x="0" y="374.5" type="line"/>
      <point x="62.5" y="374.5" type="line"/>
      <point x="62.5" y="437" type="line"/>
      <point x="187.5" y="437" type="line"/>
      <point x="375" y="437" type="line"/>
      <point x="375" y="374.5" type="line"/>
      <point x="437.5" y="374.5" type="line"/>
      <point x="437.5" y="249.5" type="line"/>
    </contour>
    <contour>
      <point x="125" y="374.5" type="line"/>
      <point x="125" y="312" type="line"/>
      <point x="312.5" y="312" type="line"/>
      <point x="312.5" y="374.5" type="line"/>
    </contour>
    <contour>
      <point x="125" y="562" type="line"/>
      <point x="187.5" y="562" type="line"/>
      <point x="187.5" y="624.5" type="line"/>
      <point x="250" y="624.5" type="line"/>
      <point x="250" y="687" type="line"/>
      <point x="375" y="687" type="line"/>
      <point x="375" y="624.5" type="line"/>
      <point x="312.5" y="624.5" type="line"/>
      <point x="312.5" y="562" type="line"/>
      <point x="250" y="562" type="line"/>
      <point x="250" y="499.5" type="line"/>
      <point x="187.5" y="499.5" type="line"/>
      <point x="125" y="499.5" type="line"/>
    </contour>
  </outline>
</glyph>
<glyph name="odieresis" format="2">
  <advance width="500"/>
  <unicode hex="00F6"/>
  <outline>
    <contour>
      <point x="0" y="62" type="line"/>
      <point x="0" y="374.5" type="line"/>
      <point x="62.5" y="374.5" type="line"/>
      <point x="62.5" y="437" type="line"/>
      <point x="375" y="437" type="line"/>
      <point x="375" y="374.5" type="line"/>
      <point x="437.5" y="374.5" type="line"/>
      <point x="437.5" y="62" type="line"/>
      <point x="375" y="62" type="line"/>
      <point x="375" y="-0.5" type="line"/>
      <point x="62.5" y="-0.5" type="line"/>
      <point x="62.5" y="62" type="line"/>
    </contour>
    <contour>
      <point x="312.5" y="62" type="line"/>
      <point x="312.5" y="374.5" type="line"/>
      <point x="125" y="374.5" type="line"/>
      <point x="125" y="62" type="line"/>
    </contour>
    <contour>
      <point x="125" y="624.5" type="line"/>
      <point x="125" y="562" type="line"/>
      <point x="62.5" y="562" type="line"/>
      <point x="0" y="562" type="line"/>
      <point x="0" y="624.5" type="line"/>
      <point x="62.5" y="624.5" type="line"/>
    </contour>
    <contour>
      <point x="312.5" y="624.5" type="line"/>
      <point x="437.5" y="624.5" type="line"/>
      <point x="437.5" y="562" type="line"/>
      <point x="312.5" y="562" type="line"/>
    </contour>
  </outline>
</glyph>
<glyph name="ydieresis" format="2">
  <advance width="500"/>
  <unicode hex="00FF"/>
  <outline>
    <contour>
      <point x="0" y="62" type="line"/>
      <point x="0" y="437" type="line"/>
      <point x="125" y="437" type="line"/>
      <point x="125" y="62" type="line"/>
      <point x="312.5" y="62" type="line"/>
      <point x="312.5" y="312" type="line"/>
      <point x="312.5" y="437" type="line"/>
      <point x="437.5" y="437" type="line"/>
      <point x="437.5" y="374.5" type="line"/>
      <point x="437.5" y="187" type="line"/>
      <point x="437.5" y="-63" type="line"/>
      <point x="375" y="-63" type="line"/>
      <point x="375" y="-125.5" type="line"/>
      <point x="312.5" y="-125.5" type="line"/>
      <point x="312.5" y="-188" type="line"/>
      <point x="62.5" y="-188" type="line"/>
      <point x="62.5" y="-125.5" type="line"/>
      <point x="250" y="-125.5" type="line"/>
      <point x="250" y="-63" type="line"/>
      <point x="312.5" y="-63" type="line"/>
      <point x="312.5" y="-0.5" type="line"/>
      <point x="125" y="-0.5" type="line"/>
      <point x="62.5" y="-0.5" type="line"/>
      <point x="62.5" y="62" type="line"/>
    </contour>
    <contour>
      <point x="125" y="624.5" type="line"/>
      <point x="125" y="562" type="line"/>
      <point x="62.5" y="562" type="line"/>
      <point x="0" y="562" type="line"/>
      <point x="0" y="624.5" type="line"/>
      <point x="62.5" y="624.5" type="line"/>
    </contour>
    <contour>
      <point x="312.5" y="624.5" type="line"/>
      <point x="437.5" y="624.5" type="line"/>
      <point x="437.5" y="562" type="line"/>
      <point x="312.5" y="562" type="line"/>
    </contour>
  </outline>
</glyph>
<glyph name="florin" format="2">
  <advance width="500"/>
  <unicode hex="0192"/>
  <outline>
    <contour>
      <point x="187.5" y="312" type="line"/>
      <point x="62.5" y="312" type="line"/>
      <point x="62.5" y="374.5" type="line"/>
      <point x="187.5" y="374.5" type="line"/>
      <point x="187.5" y="624.5" type="line"/>
      <point x="250" y="624.5" type="line"/>
      <point x="250" y="687" type="line"/>
      <point x="437.5" y="687" type="line"/>
      <point x="437.5" y="624.5" type="line"/>
      <point x="500" y="624.5" type="line"/>
      <point x="500" y="562" type="line"/>
      <point x="437.5" y="562" type="line"/>
      <point x="375" y="562" type="line"/>
      <point x="375" y="624.5" type="line"/>
      <point x="312.5" y="624.5" type="line"/>
      <point x="312.5" y="374.5" type="line"/>
      <point x="437.5" y="374.5" type="line"/>
      <point x="437.5" y="312" type="line"/>
      <point x="312.5" y="312" type="line"/>
      <point x="312.5" y="-63" type="line"/>
      <point x="250" y="-63" type="line"/>
      <point x="250" y="-125.5" type="line"/>
      <point x="62.5" y="-125.5" type="line"/>
      <point x="62.5" y="-63" type="line"/>
      <point x="0" y="-63" type="line"/>
      <point x="0" y="-0.5" type="line"/>
      <point x="125" y="-0.5" type="line"/>
      <point x="125" y="-63" type="line"/>
      <point x="187.5" y="-63" type="line"/>
    </contour>
  </outline>
</glyph>
<glyph name="Gamma" format="2">
  <advance width="500"/>
  <unicode hex="0393"/>
  <outline>
    <contour>
      <point x="0" y="624.5" type="line"/>
      <point x="437.5" y="624.5" type="line"/>
      <point x="437.5" y="437" type="line"/>
      <point x="312.5" y="437" type="line"/>
      <point x="312.5" y="562" type="line"/>
      <point x="125" y="562" type="line"/>
      <point x="125" y="-0.5" type="line"/>
      <point x="0" y="-0.5" type="line"/>
    </contour>
  </outline>
</glyph>
<glyph name="uni03A9" format="2">
  <advance width="500"/>
  <unicode hex="03A9"/>
  <outline>
    <contour>
      <point x="375" y="312" type="line"/>
      <point x="375" y="62" type="line"/>
      <point x="437.5" y="62" type="line"/>
      <point x="437.5" y="-0.5" type="line"/>
      <point x="250" y="-0.5" type="line"/>
      <point x="250" y="312" type="line"/>
      <point x="312.5" y="312" type="line"/>
      <point x="312.5" y="499.5" type="line"/>
      <point x="250" y="499.5" type="line"/>
      <point x="250" y="562" type="line"/>
      <point x="187.5" y="562" type="line"/>
      <point x="187.5" y="499.5" type="line"/>
      <point x="125" y="499.5" type="line"/>
      <point x="125" y="312" type="line"/>
      <point x="187.5" y="312" type="line"/>
      <point x="187.5" y="124.5" type="line"/>
      <point x="187.5" y="-0.5" type="line"/>
      <point x="0" y="-0.5" type="line"/>
      <point x="0" y="62" type="line"/>
      <point x="62.5" y="62" type="line"/>
      <point x="62.5" y="312" type="line"/>
      <point x="0" y="312" type="line"/>
      <point x="0" y="499.5" type="line"/>
      <point x="62.5" y="499.5" type="line"/>
      <point x="62.5" y="562" type="line"/>
      <point x="125" y="562" type="line"/>
      <point x="125" y="624.5" type="line"/>
      <point x="312.5" y="624.5" type="line"/>
      <point x="312.5" y="562" type="line"/>
      <point x="375" y="562" type="line"/>
      <point x="375" y="499.5" type="line"/>
      <point x="437.5" y="499.5" type="line"/>
      <point x="437.5" y="312" type="line"/>
    </contour>
  </outline>
</glyph>
<glyph name="delta" format="2">
  <advance width="500"/>
  <unicode hex="03B4"/>
  <outline>
    <contour>
      <point x="125" y="-0.5" type="line"/>
      <point x="125" y="62" type="line"/>
      <point x="62.5" y="62" type="line"/>
      <point x="62.5" y="312" type="line"/>
      <point x="125" y="312" type="line"/>
      <point x="125" y="374.5" type="line"/>
      <point x="250" y="374.5" type="line"/>
      <point x="250" y="437" type="line"/>
      <point x="187.5" y="437" type="line"/>
      <point x="187.5" y="499.5" type="line"/>
      <point x="125" y="499.5" type="line"/>
      <point x="125" y="562" type="line"/>
      <point x="187.5" y="562" type="line"/>
      <point x="187.5" y="624.5" type="line"/>
      <point x="437.5" y="624.5" type="line"/>
      <point x="437.5" y="562" type="line"/>
      <point x="250" y="562" type="line"/>
      <point x="250" y="499.5" type="line"/>
      <point x="312.5" y="499.5" type="line"/>
      <point x="312.5" y="437" type="line"/>
      <point x="375" y="437" type="line"/>
      <point x="375" y="374.5" type="line"/>
      <point x="437.5" y="374.5" type="line"/>
      <point x="437.5" y="62" type="line"/>
      <point x="375" y="62" type="line"/>
      <point x="375" y="-0.5" type="line"/>
    </contour>
    <contour>
      <point x="312.5" y="62" type="line"/>
      <point x="312.5" y="312" type="line"/>
      <point x="187.5" y="312" type="line"/>
      <point x="187.5" y="62" type="line"/>
    </contour>
  </outline>
</glyph>
<glyph name="pi" format="2">
  <advance width="500"/>
  <unicode hex="03C0"/>
  <outline>
    <contour>
      <point x="375" y="-0.5" type="line"/>
      <point x="250" y="-0.5" type="line"/>
      <point x="250" y="437" type="line"/>
      <point x="187.5" y="437" type="line"/>
      <point x="187.5" y="-0.5" type="line"/>
      <point x="62.5" y="-0.5" type="line"/>
      <point x="62.5" y="437" type="line"/>
      <point x="0" y="437" type="line"/>
      <point x="0" y="499.5" type="line"/>
      <point x="312.5" y="499.5" type="line"/>
      <point x="437.5" y="499.5" type="line"/>
      <point x="437.5" y="437" type="line"/>
      <point x="375" y="437" type="line"/>
    </contour>
  </outline>
</glyph>
<glyph name="bullet" format="2">
  <advance width="500"/>
  <unicode hex="2022"/>
  <outline>
    <contour>
      <point x="187.5" y="124.5" type="line"/>
      <point x="187.5" y="187" type="line"/>
      <point x="125" y="187" type="line"/>
      <point x="125" y="312" type="line"/>
      <point x="187.5" y="312" type="line"/>
      <point x="187.5" y="374.5" type="line"/>
      <point x="312.5" y="374.5" type="line"/>
      <point x="312.5" y="312" type="line"/>
      <point x="375" y="312" type="line"/>
      <point x="375" y="187" type="line"/>
      <point x="312.5" y="187" type="line"/>
      <point x="312.5" y="124.5" type="line"/>
    </contour>
  </outline>
</glyph>
<glyph name="exclamdbl" format="2">
  <advance width="500"/>
  <unicode hex="203C"/>
  <outline>
    <contour>
      <point x="187.5" y="624.5" type="line"/>
      <point x="187.5" y="187" type="line"/>
      <point x="62.5" y="187" type="line"/>
      <point x="62.5" y="624.5" type="line"/>
    </contour>
    <contour>
      <point x="437.5" y="187" type="line"/>
      <point x="312.5" y="187" type="line"/>
      <point x="312.5" y="624.5" type="line"/>
      <point x="437.5" y="624.5" type="line"/>
    </contour>
    <contour>
      <point x="62.5" y="124.5" type="line"/>
      <point x="187.5" y="124.5" type="line"/>
      <point x="187.5" y="-0.5" type="line"/>
      <point x="62.5" y="-0.5" type="line"/>
    </contour>
    <contour>
      <point x="437.5" y="124.5" type="line"/>
      <point x="437.5" y="-0.5" type="line"/>
      <point x="312.5" y="-0.5" type="line"/>
      <point x="312.5" y="124.5" type="line"/>
    </contour>
  </outline>
</glyph>
<glyph name="uni207F" format="2">
  <advance width="500"/>
  <unicode hex="207F"/>
  <outline>
    <contour>
      <point x="187.5" y="624.5" type="line"/>
      <point x="187.5" y="312" type="line"/>
      <point x="62.5" y="312" type="line"/>
      <point x="62.5" y="624.5" type="line"/>
      <point x="0" y="624.5" type="line"/>
      <point x="0" y="687" type="line"/>
      <point x="125" y="687" type="line"/>
      <point x="125" y="624.5" type="line"/>
    </contour>
    <contour>
      <point x="250" y="624.5" type="line"/>
      <point x="187.5" y="624.5" type="line"/>
      <point x="187.5" y="687" type="line"/>
      <point x="312.5" y="687" type="line"/>
      <point x="312.5" y="624.5" type="line"/>
      <point x="375" y="624.5" type="line"/>
      <point x="375" y="312" type="line"/>
      <point x="250" y="312" type="line"/>
      <point x="250" y="437" type="line"/>
    </contour>
  </outline>
</glyph>
<glyph name="arrowup" format="2">
  <advance width="500"/>
  <unicode hex="2191"/>
  <outline>
    <contour>
      <point x="187.5" y="437" type="line"/>
      <point x="62.5" y="437" type="line"/>
      <point x="62.5" y="499.5" type="line"/>
      <point x="125" y="499.5" type="line"/>
      <point x="125" y="562" type="line"/>
      <point x="187.5" y="562" type="line"/>
      <point x="187.5" y="624.5" type="line"/>
      <point x="312.5" y="624.5" type="line"/>
      <point x="312.5" y="562" type="line"/>
      <point x="375" y="562" type="line"/>
      <point x="375" y="499.5" type="line"/>
      <point x="437.5" y="499.5" type="line"/>
      <point x="437.5" y="437" type="line"/>
      <point x="312.5" y="437" type="line"/>
      <point x="312.5" y="249.5" type="line"/>
      <point x="312.5" y="-0.5" type="line"/>
      <point x="187.5" y="-0.5" type="line"/>
    </contour>
  </outline>
</glyph>
<glyph name="arrowupdnbse" format="2">
  <advance width="500"/>
  <unicode hex="21A8"/>
  <outline>
    <contour>
      <point x="437.5" y="62" type="line"/>
      <point x="437.5" y="-0.5" type="line"/>
      <point x="375" y="-0.5" type="line"/>
      <point x="312.5" y="-0.5" type="line"/>
      <point x="62.5" y="-0.5" type="line"/>
      <point x="62.5" y="62" type="line"/>
      <point x="187.5" y="62" type="line"/>
      <point x="187.5" y="124.5" type="line"/>
      <point x="125" y="124.5" type="line"/>
      <point x="125" y="187" type="line"/>
      <point x="62.5" y="187" type="line"/>
      <point x="62.5" y="249.5" type="line"/>
      <point x="187.5" y="249.5" type="line"/>
      <point x="187.5" y="437" type="line"/>
      <point x="62.5" y="437" type="line"/>
      <point x="62.5" y="499.5" type="line"/>
      <point x="125" y="499.5" type="line"/>
      <point x="125" y="562" type="line"/>
      <point x="187.5" y="562" type="line"/>
      <point x="187.5" y="624.5" type="line"/>
      <point x="312.5" y="624.5" type="line"/>
      <point x="312.5" y="562" type="line"/>
      <point x="375" y="562" type="line"/>
      <point x="375" y="499.5" type="line"/>
      <point x="437.5" y="499.5" type="line"/>
      <point x="437.5" y="437" type="line"/>
      <point x="312.5" y="437" type="line"/>
      <point x="312.5" y="312" type="line"/>
      <point x="312.5" y="249.5" type="line"/>
      <point x="437.5" y="249.5" type="line"/>
      <point x="437.5" y="187" type="line"/>
      <point x="375" y="187" type="line"/>
      <point x="375" y="124.5" type="line"/>
      <point x="312.5" y="124.5" type="line"/>
      <point x="312.5" y="62" type="line"/>
      <point x="375" y="62" type="line"/>
    </contour>
  </outline>
</glyph>
<glyph name="uni2219" format="2">
  <advance width="500"/>
  <unicode hex="2219"/>
  <outline>
    <contour>
      <point x="187.5" y="187" type="line"/>
      <point x="187.5" y="312" type="line"/>
      <point x="312.5" y="312" type="line"/>
      <point x="312.5" y="187" type="line"/>
    </contour>
  </outline>
</glyph>
<glyph name="radical" format="2">
  <advance width="500"/>
  <unicode hex="221A"/>
  <outline>
    <contour>
      <point x="187.5" y="-0.5" type="line"/>
      <point x="187.5" y="62" type="line"/>
      <point x="125" y="62" type="line"/>
      <point x="125" y="124.5" type="line"/>
      <point x="62.5" y="124.5" type="line"/>
      <point x="62.5" y="249.5" type="line"/>
      <point x="0" y="249.5" type="line"/>
      <point x="0" y="312" type="line"/>
      <point x="187.5" y="312" type="line"/>
      <point x="187.5" y="124.5" type="line"/>
      <point x="250" y="124.5" type="line"/>
      <point x="250" y="312" type="line"/>
      <point x="250" y="687" type="line"/>
      <point x="500" y="687" type="line"/>
      <point x="500" y="624.5" type="line"/>
      <point x="375" y="624.5" type="line"/>
      <point x="375" y="-0.5" type="line"/>
    </contour>
  </outline>
</glyph>
<glyph name="infinity" format="2">
  <advance width="500"/>
  <unicode hex="221E"/>
  <outline>
    <contour>
      <point x="500" y="374.5" type="line"/>
      <point x="500" y="187" type="line"/>
      <point x="437.5" y="187" type="line"/>
      <point x="437.5" y="124.5" type="line"/>
      <point x="62.5" y="124.5" type="line"/>
      <point x="62.5" y="187" type="line"/>
      <point x="0" y="187" type="line"/>
      <point x="0" y="374.5" type="line"/>
      <point x="62.5" y="374.5" type="line"/>
      <point x="62.5" y="437" type="line"/>
      <point x="437.5" y="437" type="line"/>
      <point x="437.5" y="374.5" type="line"/>
    </contour>
    <contour>
      <point x="187.5" y="187" type="line"/>
      <point x="187.5" y="374.5" type="line"/>
      <point x="125" y="374.5" type="line"/>
      <point x="125" y="187" type="line"/>
    </contour>
    <contour>
      <point x="312.5" y="187" type="line"/>
      <point x="375" y="187" type="line"/>
      <point x="375" y="374.5" type="line"/>
      <point x="312.5" y="374.5" type="line"/>
    </contour>
  </outline>
</glyph>
<glyph name="orthogonal" format="2">
  <advance width="500"/>
  <unicode hex="221F"/>
  <outline>
    <contour>
      <point x="125" y="187" type="line"/>
      <point x="437.5" y="187" type="line"/>
      <point x="437.5" y="124.5" type="line"/>
      <point x="0" y="124.5" type="line"/>
      <point x="0" y="374.5" type="line"/>
      <point x="125" y="374.5" type="line"/>
    </contour>
  </outline>
</glyph>
<glyph name="house" format="2">
  <advance width="500"/>
  <unicode hex="2302"/>
  <outline>
    <contour>
      <point x="0" y="62" type="line"/>
      <point x="0" y="312" type="line"/>
      <point x="62.5" y="312" type="line"/>
      <point x="62.5" y="374.5" type="line"/>
      <point x="125" y="374.5" type="line"/>
      <point x="125" y="437" type="line"/>
      <point x="187.5" y="437" type="line"/>
      <point x="187.5" y="499.5" type="line"/>
      <point x="250" y="499.5" type="line"/>
      <point x="250" y="437" type="line"/>
      <point x="312.5" y="437" type="line"/>
      <point x="312.5" y="374.5" type="line"/>
      <point x="375" y="374.5" type="line"/>
      <point x="375" y="312" type="line"/>
      <point x="437.5" y="312" type="line"/>
      <point x="437.5" y="124.5" type="line"/>
      <point x="437.5" y="62" type="line"/>
      <point x="250" y="62" type="line"/>
      <point x="125" y="62" type="line"/>
    </contour>
    <contour>
      <point x="125" y="312" type="line"/>
      <point x="125" y="124.5" type="line"/>
      <point x="312.5" y="124.5" type="line"/>
      <point x="312.5" y="312" type="line"/>
      <point x="250" y="312" type="line"/>
      <point x="250" y="374.5" type="line"/>
      <point x="187.5" y="374.5" type="line"/>
      <point x="187.5" y="312" type="line"/>
    </contour>
  </outline>
</glyph>
<glyph name="revlogicalnot" format="2">
  <advance width="500"/>
  <unicode hex="2310"/>
  <outline>
    <contour>
      <point x="0" y="62" type="line"/>
      <point x="0" y="374.5" type="line"/>
      <point x="437.5" y="374.5" type="line"/>
      <point x="437.5" y="312" type="line"/>
      <point x="125" y="312" type="line"/>
      <point x="125" y="124.5" type="line"/>
      <point x="125" y="62" type="line"/>
    </contour>
  </outline>
</glyph>
<glyph name="integraltp" format="2">
  <advance width="500"/>
  <unicode hex="2320"/>
  <outline>
    <contour>
      <point x="187.5" y="312" type="line"/>
      <point x="187.5" y="562" type="line"/>
      <point x="250" y="562" type="line"/>
      <point x="250" y="624.5" type="line"/>
      <point x="437.5" y="624.5" type="line"/>
      <point x="437.5" y="562" type="line"/>
      <point x="500" y="562" type="line"/>
      <point x="500" y="437" type="line"/>
      <point x="375" y="437" type="line"/>
      <point x="375" y="562" type="line"/>
      <point x="312.5" y="562" type="line"/>
      <point x="312.5" y="312" type="line"/>
      <point x="312.5" y="187" type="line"/>
      <point x="312.5" y="-188" type="line"/>
      <point x="187.5" y="-188" type="line"/>
    </contour>
  </outline>
</glyph>
<glyph name="integralbt" format="2">
  <advance width="500"/>
  <unicode hex="2321"/>
  <outline>
    <contour>
      <point x="187.5" y="812" type="line"/>
      <point x="312.5" y="812" type="line"/>
      <point x="312.5" y="62" type="line"/>
      <point x="250" y="62" type="line"/>
      <point x="250" y="-0.5" type="line"/>
      <point x="62.5" y="-0.5" type="line"/>
      <point x="62.5" y="62" type="line"/>
      <point x="0" y="62" type="line"/>
      <point x="0" y="249.5" type="line"/>
      <point x="62.5" y="249.5" type="line"/>
      <point x="125" y="249.5" type="line"/>
      <point x="125" y="62" type="line"/>
      <point x="187.5" y="62" type="line"/>
    </contour>
  </outline>
</glyph>
<glyph name="SF110000" format="2">
  <advance width="500"/>
  <unicode hex="2502"/>
  <outline>
    <contour>
      <point x="187.5" y="749.5" type="line"/>
      <point x="62.5" y="749.5" type="line"/>
      <point x="62.5" y="812" type="line"/>
      <point x="250" y="812" type="line"/>
      <point x="250" y="749.5" type="line"/>
      <point x="312.5" y="749.5" type="line"/>
      <point x="312.5" y="-188" type="line"/>
      <point x="187.5" y="-188" type="line"/>
      <point x="187.5" y="62" type="line"/>
    </contour>
    <contour>
      <point x="312.5" y="812" type="line"/>
      <point x="500" y="812" type="line"/>
      <point x="500" y="749.5" type="line"/>
      <point x="312.5" y="749.5" type="line"/>
    </contour>
  </outline>
</glyph>
<glyph name="SF010000" format="2">
  <advance width="500"/>
  <unicode hex="250C"/>
  <outline>
    <contour>
      <point x="187.5" y="312" type="line"/>
      <point x="500" y="312" type="line"/>
      <point x="500" y="249.5" type="line"/>
      <point x="312.5" y="249.5" type="line"/>
      <point x="312.5" y="-188" type="line"/>
      <point x="187.5" y="-188" type="line"/>
    </contour>
  </outline>
</glyph>
<glyph name="SF030000" format="2">
  <advance width="500"/>
  <unicode hex="2510"/>
  <outline>
    <contour>
      <point x="187.5" y="249.5" type="line"/>
      <point x="0" y="249.5" type="line"/>
      <point x="0" y="312" type="line"/>
      <point x="312.5" y="312" type="line"/>
      <point x="312.5" y="-188" type="line"/>
      <point x="187.5" y="-188" type="line"/>
    </contour>
  </outline>
</glyph>
<glyph name="SF020000" format="2">
  <advance width="500"/>
  <unicode hex="2514"/>
  <outline>
    <contour>
      <point x="500" y="312" type="line"/>
      <point x="500" y="249.5" type="line"/>
      <point x="187.5" y="249.5" type="line"/>
      <point x="187.5" y="812" type="line"/>
      <point x="312.5" y="812" type="line"/>
      <point x="312.5" y="499.5" type="line"/>
      <point x="312.5" y="312" type="line"/>
    </contour>
  </outline>
</glyph>
<glyph name="SF040000" format="2">
  <advance width="500"/>
  <unicode hex="2518"/>
  <outline>
    <contour>
      <point x="0" y="249.5" type="line"/>
      <point x="0" y="312" type="line"/>
      <point x="187.5" y="312" type="line"/>
      <point x="187.5" y="812" type="line"/>
      <point x="312.5" y="812" type="line"/>
      <point x="312.5" y="249.5" type="line"/>
    </contour>
  </outline>
</glyph>
<glyph name="SF060000" format="2">
  <advance width="500"/>
  <unicode hex="252C"/>
  <outline>
    <contour>
      <point x="187.5" y="249.5" type="line"/>
      <point x="0" y="249.5" type="line"/>
      <point x="0" y="312" type="line"/>
      <point x="437.5" y="312" type="line"/>
      <point x="500" y="312" type="line"/>
      <point x="500" y="249.5" type="line"/>
      <point x="437.5" y="249.5" type="line"/>
      <point x="312.5" y="249.5" type="line"/>
      <point x="312.5" y="-63" type="line"/>
      <point x="312.5" y="-188" type="line"/>
      <point x="187.5" y="-188" type="line"/>
      <point x="187.5" y="-125.5" type="line"/>
    </contour>
  </outline>
</glyph>
<glyph name="SF050000" format="2">
  <advance width="500"/>
  <unicode hex="253C"/>
  <outline>
    <contour>
      <point x="187.5" y="249.5" type="line"/>
      <point x="0" y="249.5" type="line"/>
      <point x="0" y="312" type="line"/>
      <point x="187.5" y="312" type="line"/>
      <point x="187.5" y="749.5" type="line"/>
      <point x="312.5" y="749.5" type="line"/>
      <point x="312.5" y="312" type="line"/>
      <point x="500" y="312" type="line"/>
      <point x="500" y="249.5" type="line"/>
      <point x="312.5" y="249.5" type="line"/>
      <point x="312.5" y="-188" type="line"/>
      <point x="187.5" y="-188" type="line"/>
    </contour>
  </outline>
</glyph>
<glyph name="SF430000" format="2">
  <advance width="500"/>
  <unicode hex="2550"/>
  <outline>
    <contour>
      <point x="500" y="437" type="line"/>
      <point x="500" y="374.5" type="line"/>
      <point x="250" y="374.5" type="line"/>
      <point x="0" y="374.5" type="line"/>
      <point x="0" y="437" type="line"/>
      <point x="62.5" y="437" type="line"/>
    </contour>
    <contour>
      <point x="0" y="249.5" type="line"/>
      <point x="0" y="312" type="line"/>
      <point x="250" y="312" type="line"/>
      <point x="500" y="312" type="line"/>
      <point x="500" y="249.5" type="line"/>
      <point x="437.5" y="249.5" type="line"/>
    </contour>
    <contour>
      <point x="125" y="749.5" type="line"/>
      <point x="125" y="812" type="line"/>
      <point x="187.5" y="812" type="line"/>
      <point x="250" y="812" type="line"/>
      <point x="250" y="749.5" type="line"/>
      <point x="187.5" y="749.5" type="line"/>
    </contour>
    <contour>
      <point x="375" y="749.5" type="line"/>
      <point x="312.5" y="749.5" type="line"/>
      <point x="312.5" y="812" type="line"/>
      <point x="375" y="812" type="line"/>
      <point x="437.5" y="812" type="line"/>
      <point x="437.5" y="749.5" type="line"/>
    </contour>
  </outline>
</glyph>
<glyph name="SF240000" format="2">
  <advance width="500"/>
  <unicode hex="2551"/>
  <outline>
    <contour>
      <point x="125" y="812" type="line"/>
      <point x="250" y="812" type="line"/>
      <point x="250" y="-188" type="line"/>
      <point x="125" y="-188" type="line"/>
    </contour>
    <contour>
      <point x="312.5" y="812" type="line"/>
      <point x="437.5" y="812" type="line"/>
      <point x="437.5" y="124.5" type="line"/>
      <point x="437.5" y="-188" type="line"/>
      <point x="312.5" y="-188" type="line"/>
      <point x="312.5" y="437" type="line"/>
    </contour>
  </outline>
</glyph>
<glyph name="SF510000" format="2">
  <advance width="500"/>
  <unicode hex="2552"/>
  <outline>
    <contour>
      <point x="187.5" y="437" type="line"/>
      <point x="500" y="437" type="line"/>
      <point x="500" y="374.5" type="line"/>
      <point x="312.5" y="374.5" type="line"/>
      <point x="312.5" y="312" type="line"/>
      <point x="500" y="312" type="line"/>
      <point x="500" y="249.5" type="line"/>
      <point x="312.5" y="249.5" type="line"/>
      <point x="312.5" y="-63" type="line"/>
      <point x="312.5" y="-188" type="line"/>
      <point x="187.5" y="-188" type="line"/>
      <point x="187.5" y="-0.5" type="line"/>
    </contour>
  </outline>
</glyph>
<glyph name="SF490000" format="2">
  <advance width="500"/>
  <unicode hex="2559"/>
  <outline>
    <contour>
      <point x="125" y="249.5" type="line"/>
      <point x="125" y="812" type="line"/>
      <point x="250" y="812" type="line"/>
      <point x="250" y="312" type="line"/>
      <point x="312.5" y="312" type="line"/>
      <point x="312.5" y="812" type="line"/>
      <point x="437.5" y="812" type="line"/>
      <point x="437.5" y="312" type="line"/>
      <point x="500" y="312" type="line"/>
      <point x="500" y="249.5" type="line"/>
    </contour>
  </outline>
</glyph>
<glyph name="SF270000" format="2">
  <advance width="500"/>
  <unicode hex="255C"/>
  <outline>
    <contour>
      <point x="0" y="249.5" type="line"/>
      <point x="0" y="312" type="line"/>
      <point x="125" y="312" type="line"/>
      <point x="125" y="749.5" type="line"/>
      <point x="250" y="749.5" type="line"/>
      <point x="250" y="312" type="line"/>
      <point x="312.5" y="312" type="line"/>
      <point x="312.5" y="749.5" type="line"/>
      <point x="437.5" y="749.5" type="line"/>
      <point x="437.5" y="249.5" type="line"/>
    </contour>
  </outline>
</glyph>
<glyph name="SF370000" format="2">
  <advance width="500"/>
  <unicode hex="255F"/>
  <outline>
    <contour>
      <point x="125" y="749.5" type="line"/>
      <point x="187.5" y="749.5" type="line"/>
      <point x="187.5" y="812" type="line"/>
      <point x="312.5" y="812" type="line"/>
      <point x="312.5" y="749.5" type="line"/>
      <point x="250" y="749.5" type="line"/>
      <point x="250" y="-188" type="line"/>
      <point x="125" y="-188" type="line"/>
      <point x="125" y="-0.5" type="line"/>
    </contour>
    <contour>
      <point x="312.5" y="749.5" type="line"/>
      <point x="437.5" y="749.5" type="line"/>
      <point x="437.5" y="312" type="line"/>
      <point x="500" y="312" type="line"/>
      <point x="500" y="249.5" type="line"/>
      <point x="437.5" y="249.5" type="line"/>
      <point x="437.5" y="-188" type="line"/>
      <point x="312.5" y="-188" type="line"/>
    </contour>
  </outline>
</glyph>
<glyph name="SF190000" format="2">
  <advance width="500"/>
  <unicode hex="2561"/>
  <outline>
    <contour>
      <point x="187.5" y="249.5" type="line"/>
      <point x="0" y="249.5" type="line"/>
      <point x="0" y="312" type="line"/>
      <point x="125" y="312" type="line"/>
      <point x="187.5" y="312" type="line"/>
      <point x="187.5" y="374.5" type="line"/>
      <point x="125" y="374.5" type="line"/>
      <point x="0" y="374.5" type="line"/>
      <point x="0" y="437" type="line"/>
      <point x="125" y="437" type="line"/>
      <point x="187.5" y="437" type="line"/>
      <point x="187.5" y="624.5" type="line"/>
      <point x="187.5" y="749.5" type="line"/>
      <point x="187.5" y="812" type="line"/>
      <point x="312.5" y="812" type="line"/>
      <point x="312.5" y="749.5" type="line"/>
      <point x="312.5" y="-188" type="line"/>
      <point x="187.5" y="-188" type="line"/>
    </contour>
  </outline>
</glyph>
<glyph name="SF470000" format="2">
  <advance width="500"/>
  <unicode hex="2564"/>
  <outline>
    <contour>
      <point x="187.5" y="249.5" type="line"/>
      <point x="0" y="249.5" type="line"/>
      <point x="0" y="312" type="line"/>
      <point x="437.5" y="312" type="line"/>
      <point x="500" y="312" type="line"/>
      <point x="500" y="249.5" type="line"/>
      <point x="437.5" y="249.5" type="line"/>
      <point x="312.5" y="249.5" type="line"/>
      <point x="312.5" y="-63" type="line"/>
      <point x="312.5" y="-188" type="line"/>
      <point x="187.5" y="-188" type="line"/>
      <point x="187.5" y="-125.5" type="line"/>
    </contour>
    <contour>
      <point x="500" y="437" type="line"/>
      <point x="500" y="374.5" type="line"/>
      <point x="250" y="374.5" type="line"/>
      <point x="0" y="374.5" type="line"/>
      <point x="0" y="437" type="line"/>
      <point x="62.5" y="437" type="line"/>
    </contour>
  </outline>
</glyph>
<glyph name="SF480000" format="2">
  <advance width="500"/>
  <unicode hex="2565"/>
  <outline>
    <contour>
      <point x="437.5" y="-188" type="line"/>
      <point x="312.5" y="-188" type="line"/>
      <point x="312.5" y="249.5" type="line"/>
      <point x="250" y="249.5" type="line"/>
      <point x="250" y="-188" type="line"/>
      <point x="125" y="-188" type="line"/>
      <point x="125" y="249.5" type="line"/>
      <point x="0" y="249.5" type="line"/>
      <point x="0" y="312" type="line"/>
      <point x="375" y="312" type="line"/>
      <point x="500" y="312" type="line"/>
      <point x="500" y="249.5" type="line"/>
      <point x="437.5" y="249.5" type="line"/>
    </contour>
    <contour>
      <point x="187.5" y="812" type="line"/>
      <point x="312.5" y="812" type="line"/>
      <point x="312.5" y="749.5" type="line"/>
      <point x="187.5" y="749.5" type="line"/>
    </contour>
  </outline>
</glyph>
<glyph name="SF460000" format="2">
  <advance width="500"/>
  <unicode hex="2568"/>
  <outline>
    <contour>
      <point x="0" y="249.5" type="line"/>
      <point x="0" y="312" type="line"/>
      <point x="125" y="312" type="line"/>
      <point x="125" y="749.5" type="line"/>
      <point x="250" y="749.5" type="line"/>
      <point x="250" y="374.5" type="line"/>
      <point x="250" y="312" type="line"/>
      <point x="312.5" y="312" type="line"/>
      <point x="312.5" y="374.5" type="line"/>
      <point x="312.5" y="749.5" type="line"/>
      <point x="437.5" y="749.5" type="line"/>
      <point x="437.5" y="499.5" type="line"/>
      <point x="437.5" y="312" type="line"/>
      <point x="500" y="312" type="line"/>
      <point x="500" y="249.5" type="line"/>
      <point x="312.5" y="249.5" type="line"/>
    </contour>
  </outline>
</glyph>
<glyph name="SF400000" format="2">
  <advance width="500"/>
  <unicode hex="2569"/>
  <outline>
    <contour>
      <point x="125" y="437" type="line"/>
      <point x="125" y="812" type="line"/>
      <point x="250" y="812" type="line"/>
      <point x="250" y="374.5" type="line"/>
      <point x="0" y="374.5" type="line"/>
      <point x="0" y="437" type="line"/>
    </contour>
    <contour>
      <point x="312.5" y="812" type="line"/>
      <point x="437.5" y="812" type="line"/>
      <point x="437.5" y="437" type="line"/>
      <point x="500" y="437" type="line"/>
      <point x="500" y="374.5" type="line"/>
      <point x="312.5" y="374.5" type="line"/>
    </contour>
    <contour>
      <point x="0" y="249.5" type="line"/>
      <point x="0" y="312" type="line"/>
      <point x="250" y="312" type="line"/>
      <point x="500" y="312" type="line"/>
      <point x="500" y="249.5" type="line"/>
      <point x="437.5" y="249.5" type="line"/>
    </contour>
  </outline>
</glyph>
<glyph name="upblock" format="2">
  <advance width="500"/>
  <unicode hex="2580"/>
  <outline>
    <contour>
      <point x="500" y="312" type="line"/>
      <point x="0" y="312" type="line"/>
      <point x="0" y="749.5" type="line"/>
      <point x="250" y="749.5" type="line"/>
      <point x="250" y="812" type="line"/>
      <point x="375" y="812" type="line"/>
      <point x="500" y="812" type="line"/>
    </contour>
  </outline>
</glyph>
<glyph name="dnblock" format="2">
  <advance width="500"/>
  <unicode hex="2584"/>
  <outline>
    <contour>
      <point x="0" y="312" type="line"/>
      <point x="500" y="312" type="line"/>
      <point x="500" y="-188" type="line"/>
      <point x="0" y="-188" type="line"/>
    </contour>
    <contour>
      <point x="0" y="749.5" type="line"/>
      <point x="0" y="812" type="line"/>
      <point x="500" y="812" type="line"/>
      <point x="500" y="749.5" type="line"/>
    </contour>
  </outline>
</glyph>
<glyph name="block" format="2">
  <advance width="500"/>
  <unicode hex="2588"/>
  <outline>
    <contour>
      <point x="500" y="-188" type="line"/>
      <point x="0" y="-188" type="line"/>
      <point x="0" y="437" type="line"/>
      <point x="0" y="749.5" type="line"/>
      <point x="187.5" y="749.5" type="line"/>
      <point x="187.5" y="812" type="line"/>
      <point x="312.5" y="812" type="line"/>
      <point x="312.5" y="749.5" type="line"/>
      <point x="500" y="749.5" type="line"/>
    </contour>
  </outline>
</glyph>
<glyph name="lfblock" format="2">
  <advance width="500"/>
  <unicode hex="258C"/>
  <outline>
    <contour>
      <point x="0" y="812" type="line"/>
      <point x="500" y="812" type="line"/>
      <point x="500" y="749.5" type="line"/>
      <point x="250" y="749.5" type="line"/>
      <point x="250" y="-188" type="line"/>
      <point x="187.5" y="-188" type="line"/>
      <point x="0" y="-188" type="line"/>
    </contour>
  </outline>
</glyph>
<glyph name="rtblock" format="2">
  <advance width="500"/>
  <unicode hex="2590"/>
  <outline>
    <contour>
      <point x="500" y="-188" type="line"/>
      <point x="250" y="-188" type="line"/>
      <point x="250" y="-63" type="line"/>
      <point x="250" y="749.5" type="line"/>
      <point x="500" y="749.5" type="line"/>
      <point x="500" y="687" type="line"/>
    </contour>
    <contour>
      <point x="0" y="749.5" type="line"/>
      <point x="0" y="812" type="line"/>
      <point x="187.5" y="812" type="line"/>
      <point x="250" y="812" type="line"/>
      <point x="250" y="749.5" type="line"/>
      <point x="187.5" y="749.5" type="line"/>
    </contour>
  </outline>
</glyph>
<glyph name="shade" format="2">
  <advance width="500"/>
  <unicode hex="2592"/>
  <outline>
    <contour>
      <point x="62.5" y="687" type="line"/>
      <point x="62.5" y="812" type="line"/>
      <point x="125" y="812" type="line"/>
      <point x="125" y="687" type="line"/>
    </contour>
    <contour>
      <point x="375" y="749.5" type="line"/>
      <point x="375" y="687" type="line"/>
      <point x="312.5" y="687" type="line"/>
      <point x="312.5" y="749.5" type="line"/>
      <point x="312.5" y="812" type="line"/>
      <point x="375" y="812" type="line"/>
    </contour>
    <contour>
      <point x="250" y="687" type="line"/>
      <point x="187.5" y="687" type="line"/>
      <point x="187.5" y="749.5" type="line"/>
      <point x="250" y="749.5" type="line"/>
    </contour>
    <contour>
      <point x="437.5" y="749.5" type="line"/>
      <point x="500" y="749.5" type="line"/>
      <point x="500" y="687" type="line"/>
      <point x="437.5" y="687" type="line"/>
    </contour>
    <contour>
      <point x="0" y="687" type="line"/>
      <point x="62.5" y="687" type="line"/>
      <point x="62.5" y="624.5" type="line"/>
      <point x="0" y="624.5" type="line"/>
    </contour>
    <contour>
      <point x="187.5" y="687" type="line"/>
      <point x="187.5" y="624.5" type="line"/>
      <point x="125" y="624.5" type="line"/>
      <point x="125" y="687" type="line"/>
    </contour>
    <contour>
      <point x="250" y="624.5" type="line"/>
      <point x="250" y="687" type="line"/>
      <point x="312.5" y="687" type="line"/>
      <point x="312.5" y="624.5" type="line"/>
    </contour>
    <contour>
      <point x="375" y="687" type="line"/>
      <point x="437.5" y="687" type="line"/>
      <point x="437.5" y="624.5" type="line"/>
      <point x="375" y="624.5" type="line"/>
    </contour>
    <contour>
      <point x="125" y="624.5" type="line"/>
      <point x="125" y="562" type="line"/>
      <point x="62.5" y="562" type="line"/>
      <point x="62.5" y="624.5" type="line"/>
    </contour>
    <contour>
      <point x="187.5" y="624.5" type="line"/>
      <point x="250" y="624.5" type="line"/>
      <point x="250" y="562" type="line"/>
      <point x="187.5" y="562" type="line"/>
    </contour>
    <contour>
      <point x="312.5" y="624.5" type="line"/>
      <point x="375" y="624.5" type="line"/>
      <point x="375" y="562" type="line"/>
      <point x="312.5" y="562" type="line"/>
    </contour>
    <contour>
      <point x="500" y="562" type="line"/>
      <point x="437.5" y="562" type="line"/>
      <point x="437.5" y="624.5" type="line"/>
      <point x="500" y="624.5" type="line"/>
    </contour>
    <contour>
      <point x="62.5" y="562" type="line"/>
      <point x="62.5" y="499.5" type="line"/>
      <point x="0" y="499.5" type="line"/>
      <point x="0" y="562" type="line"/>
    </contour>
    <contour>
      <point x="125" y="562" type="line"/>
      <point x="187.5" y="562" type="line"/>
      <point x="187.5" y="499.5" type="line"/>
      <point x="125" y="499.5" type="line"/>
    </contour>
    <contour>
      <point x="312.5" y="562" type="line"/>
      <point x="312.5" y="499.5" type="line"/>
      <point x="250" y="499.5" type="line"/>
      <point x="250" y="562" type="line"/>
    </contour>
    <contour>
      <point x="375" y="562" type="line"/>
      <point x="437.5" y="562" type="line"/>
      <point x="437.5" y="499.5" type="line"/>
      <point x="375" y="499.5" type="line"/>
    </contour>
    <contour>
      <point x="62.5" y="437" type="line"/>
      <point x="62.5" y="499.5" type="line"/>
      <point x="125" y="499.5" type="line"/>
      <point x="125" y="437" type="line"/>
    </contour>
    <contour>
      <point x="187.5" y="437" type="line"/>
      <point x="187.5" y="499.5" type="line"/>
      <point x="250" y="499.5" type="line"/>
      <point x="250" y="437" type="line"/>
    </contour>
    <contour>
      <point x="375" y="437" type="line"/>
      <point x="312.5" y="437" type="line"/>
      <point x="312.5" y="499.5" type="line"/>
      <point x="375" y="499.5" type="line"/>
    </contour>
    <contour>
      <point x="437.5" y="437" type="line"/>
      <point x="437.5" y="499.5" type="line"/>
      <point x="500" y="499.5" type="line"/>
      <point x="500" y="437" type="line"/>
    </contour>
    <contour>
      <point x="62.5" y="437" type="line"/>
      <point x="62.5" y="374.5" type="line"/>
      <point x="0" y="374.5" type="line"/>
      <point x="0" y="437" type="line"/>
    </contour>
    <contour>
      <point x="125" y="374.5" type="line"/>
      <point x="125" y="437" type="line"/>
      <point x="187.5" y="437" type="line"/>
      <point x="187.5" y="374.5" type="line"/>
    </contour>
    <contour>
      <point x="312.5" y="374.5" type="line"/>
      <point x="250" y="374.5" type="line"/>
      <point x="250" y="437" type="line"/>
      <point x="312.5" y="437" type="line"/>
    </contour>
    <contour>
      <point x="375" y="437" type="line"/>
      <point x="437.5" y="437" type="line"/>
      <point x="437.5" y="374.5" type="line"/>
      <point x="375" y="374.5" type="line"/>
    </contour>
    <contour>
      <point x="62.5" y="374.5" type="line"/>
      <point x="125" y="374.5" type="line"/>
      <point x="125" y="312" type="line"/>
      <point x="62.5" y="312" type="line"/>
    </contour>
    <contour>
      <point x="187.5" y="374.5" type="line"/>
      <point x="250" y="374.5" type="line"/>
      <point x="250" y="312" type="line"/>
      <point x="187.5" y="312" type="line"/>
    </contour>
    <contour>
      <point x="375" y="374.5" type="line"/>
      <point x="375" y="312" type="line"/>
      <point x="312.5" y="312" type="line"/>
      <point x="312.5" y="374.5" type="line"/>
    </contour>
    <contour>
      <point x="500" y="374.5" type="line"/>
      <point x="500" y="312" type="line"/>
      <point x="437.5" y="312" type="line"/>
      <point x="437.5" y="374.5" type="line"/>
    </contour>
    <contour>
      <point x="0" y="312" type="line"/>
      <point x="62.5" y="312" type="line"/>
      <point x="62.5" y="249.5" type="line"/>
      <point x="0" y="249.5" type="line"/>
    </contour>
    <contour>
      <point x="187.5" y="249.5" type="line"/>
      <point x="125" y="249.5" type="line"/>
      <point x="125" y="312" type="line"/>
      <point x="187.5" y="312" type="line"/>
    </contour>
    <contour>
      <point x="250" y="249.5" type="line"/>
      <point x="250" y="312" type="line"/>
      <point x="312.5" y="312" type="line"/>
      <point x="312.5" y="249.5" type="line"/>
    </contour>
    <contour>
      <point x="437.5" y="312" type="line"/>
      <point x="437.5" y="249.5" type="line"/>
      <point x="375" y="249.5" type="line"/>
      <point x="375" y="312" type="line"/>
    </contour>
    <contour>
      <point x="62.5" y="249.5" type="line"/>
      <point x="125" y="249.5" type="line"/>
      <point x="125" y="187" type="line"/>
      <point x="62.5" y="187" type="line"/>
    </contour>
    <contour>
      <point x="187.5" y="187" type="line"/>
      <point x="187.5" y="249.5" type="line"/>
      <point x="250" y="249.5" type="line"/>
      <point x="250" y="187" type="line"/>
    </contour>
    <contour>
      <point x="312.5" y="187" type="line"/>
      <point x="312.5" y="249.5" type="line"/>
      <point x="375" y="249.5" type="line"/>
      <point x="375" y="187" type="line"/>
    </contour>
    <contour>
      <point x="500" y="187" type="line"/>
      <point x="437.5" y="187" type="line"/>
      <point x="437.5" y="249.5" type="line"/>
      <point x="500" y="249.5" type="line"/>
    </contour>
    <contour>
      <point x="0" y="187" type="line"/>
      <point x="62.5" y="187" type="line"/>
      <point x="62.5" y="124.5" type="line"/>
      <point x="0" y="124.5" type="line"/>
    </contour>
    <contour>
      <point x="187.5" y="187" type="line"/>
      <point x="187.5" y="124.5" type="line"/>
      <point x="125" y="124.5" type="line"/>
      <point x="125" y="187" type="line"/>
    </contour>
    <contour>
      <point x="250" y="124.5" type="line"/>
      <point x="250" y="187" type="line"/>
      <point x="312.5" y="187" type="line"/>
      <point x="312.5" y="124.5" type="line"/>
    </contour>
    <contour>
      <point x="375" y="187" type="line"/>
      <point x="437.5" y="187" type="line"/>
      <point x="437.5" y="124.5" type="line"/>
      <point x="375" y="124.5" type="line"/>
    </contour>
    <contour>
      <point x="62.5" y="124.5" type="line"/>
      <point x="125" y="124.5" type="line"/>
      <point x="125" y="62" type="line"/>
      <point x="62.5" y="62" type="line"/>
    </contour>
    <contour>
      <point x="187.5" y="124.5" type="line"/>
      <point x="250" y="124.5" type="line"/>
      <point x="250" y="62" type="line"/>
      <point x="187.5" y="62" type="line"/>
    </contour>
    <contour>
      <point x="375" y="124.5" type="line"/>
      <point x="375" y="62" type="line"/>
      <point x="312.5" y="62" type="line"/>
      <point x="312.5" y="124.5" type="line"/>
    </contour>
    <contour>
      <point x="437.5" y="124.5" type="line"/>
      <point x="500" y="124.5" type="line"/>
      <point x="500" y="62" type="line"/>
      <point x="437.5" y="62" type="line"/>
    </contour>
    <contour>
      <point x="0" y="62" type="line"/>
      <point x="62.5" y="62" type="line"/>
      <point x="62.5" y="-0.5" type="line"/>
      <point x="0" y="-0.5" type="line"/>
    </contour>
    <contour>
      <point x="125" y="62" type="line"/>
      <point x="187.5" y="62" type="line"/>
      <point x="187.5" y="-0.5" type="line"/>
      <point x="125" y="-0.5" type="line"/>
    </contour>
    <contour>
      <point x="312.5" y="-0.5" type="line"/>
      <point x="250" y="-0.5" type="line"/>
      <point x="250" y="62" type="line"/>
      <point x="312.5" y="62" type="line"/>
    </contour>
    <contour>
      <point x="375" y="62" type="line"/>
      <point x="437.5" y="62" type="line"/>
      <point x="437.5" y="-0.5" type="line"/>
      <point x="375" y="-0.5" type="line"/>
    </contour>
    <contour>
      <point x="62.5" y="-0.5" type="line"/>
      <point x="125" y="-0.5" type="line"/>
      <point x="125" y="-63" type="line"/>
      <point x="62.5" y="-63" type="line"/>
    </contour>
    <contour>
      <point x="187.5" y="-0.5" type="line"/>
      <point x="250" y="-0.5" type="line"/>
      <point x="250" y="-63" type="line"/>
      <point x="187.5" y="-63" type="line"/>
    </contour>
    <contour>
      <point x="375" y="-0.5" type="line"/>
      <point x="375" y="-63" type="line"/>
      <point x="312.5" y="-63" type="line"/>
      <point x="312.5" y="-0.5" type="line"/>
    </contour>
    <contour>
      <point x="500" y="-63" type="line"/>
      <point x="437.5" y="-63" type="line"/>
      <point x="437.5" y="-0.5" type="line"/>
      <point x="500" y="-0.5" type="line"/>
    </contour>
    <contour>
      <point x="62.5" y="-63" type="line"/>
      <point x="62.5" y="-125.5" type="line"/>
      <point x="0" y="-125.5" type="line"/>
      <point x="0" y="-63" type="line"/>
    </contour>
    <contour>
      <point x="125" y="-63" type="line"/>
      <point x="187.5" y="-63" type="line"/>
      <point x="187.5" y="-125.5" type="line"/>
      <point x="125" y="-125.5" type="line"/>
    </contour>
    <contour>
      <point x="312.5" y="-125.5" type="line"/>
      <point x="250" y="-125.5" type="line"/>
      <point x="250" y="-63" type="line"/>
      <point x="312.5" y="-63" type="line"/>
    </contour>
    <contour>
      <point x="437.5" y="-63" type="line"/>
      <point x="437.5" y="-125.5" type="line"/>
      <point x="375" y="-125.5" type="line"/>
      <point x="375" y="-63" type="line"/>
    </contour>
    <contour>
      <point x="125" y="-188" type="line"/>
      <point x="62.5" y="-188" type="line"/>
      <point x="62.5" y="-125.5" type="line"/>
      <point x="125" y="-125.5" type="line"/>
    </contour>
    <contour>
      <point x="187.5" y="-125.5" type="line"/>
      <point x="250" y="-125.5" type="line"/>
      <point x="250" y="-188" type="line"/>
      <point x="187.5" y="-188" type="line"/>
    </contour>
    <contour>
      <point x="312.5" y="-188" type="line"/>
      <point x="312.5" y="-125.5" type="line"/>
      <point x="375" y="-125.5" type="line"/>
      <point x="375" y="-188" type="line"/>
    </contour>
    <contour>
      <point x="500" y="-188" type="line"/>
      <point x="437.5" y="-188" type="line"/>
      <point x="437.5" y="-125.5" type="line"/>
      <point x="500" y="-125.5" type="line"/>
    </contour>
  </outline>
</glyph>
<glyph name="filledbox" format="2">
  <advance width="500"/>
  <unicode hex="25A0"/>
  <outline>
    <contour>
      <point x="375" y="499.5" type="line"/>
      <point x="375" y="62" type="line"/>
      <point x="62.5" y="62" type="line"/>
      <point x="62.5" y="499.5" type="line"/>
    </contour>
  </outline>
</glyph>
<glyph name="filledrect" format="2">
  <advance width="500"/>
  <unicode hex="25AC"/>
  <outline>
    <contour>
      <point x="0" y="249.5" type="line"/>
      <point x="437.5" y="249.5" type="line"/>
      <point x="437.5" y="-0.5" type="line"/>
      <point x="0" y="-0.5" type="line"/>
    </contour>
  </outline>
</glyph>
<glyph name="circle" format="2">
  <advance width="500"/>
  <unicode hex="25CB"/>
  <outline>
    <contour>
      <point x="125" y="62" type="line"/>
      <point x="125" y="124.5" type="line"/>
      <point x="62.5" y="124.5" type="line"/>
      <point x="62.5" y="374.5" type="line"/>
      <point x="125" y="374.5" type="line"/>
      <point x="125" y="437" type="line"/>
      <point x="375" y="437" type="line"/>
      <point x="375" y="374.5" type="line"/>
      <point x="437.5" y="374.5" type="line"/>
      <point x="437.5" y="249.5" type="line"/>
      <point x="437.5" y="124.5" type="line"/>
      <point x="375" y="124.5" type="line"/>
      <point x="375" y="62" type="line"/>
    </contour>
    <contour>
      <point x="125" y="187" type="line"/>
      <point x="187.5" y="187" type="line"/>
      <point x="187.5" y="124.5" type="line"/>
      <point x="312.5" y="124.5" type="line"/>
      <point x="312.5" y="187" type="line"/>
      <point x="375" y="187" type="line"/>
      <point x="375" y="312" type="line"/>
      <point x="312.5" y="312" type="line"/>
      <point x="312.5" y="374.5" type="line"/>
      <point x="250" y="374.5" type="line"/>
      <point x="187.5" y="374.5" type="line"/>
      <point x="187.5" y="312" type="line"/>
      <point x="125" y="312" type="line"/>
    </contour>
    <contour>
      <point x="0" y="749.5" type="line"/>
      <point x="0" y="812" type="line"/>
      <point x="500" y="812" type="line"/>
      <point x="500" y="749.5" type="line"/>
    </contour>
  </outline>
</glyph>
<glyph name="invbullet" format="2">
  <advance width="500"/>
  <unicode hex="25D8"/>
  <outline>
    <contour>
      <point x="500" y="-188" type="line"/>
      <point x="0" y="-188" type="line"/>
      <point x="0" y="749.5" type="line"/>
      <point x="500" y="749.5" type="line"/>
    </contour>
    <contour>
      <point x="125" y="187" type="line"/>
      <point x="187.5" y="187" type="line"/>
      <point x="187.5" y="124.5" type="line"/>
      <point x="312.5" y="124.5" type="line"/>
      <point x="312.5" y="187" type="line"/>
      <point x="375" y="187" type="line"/>
      <point x="375" y="312" type="line"/>
      <point x="312.5" y="312" type="line"/>
      <point x="312.5" y="374.5" type="line"/>
      <point x="250" y="374.5" type="line"/>
      <point x="187.5" y="374.5" type="line"/>
      <point x="187.5" y="312" type="line"/>
      <point x="125" y="312" type="line"/>
    </contour>
  </outline>
</glyph>
<glyph name="female" format="2">
  <advance width="500"/>
  <unicode hex="2640"/>
  <outline>
    <contour>
      <point x="187.5" y="249.5" type="line"/>
      <point x="125" y="249.5" type="line"/>
      <point x="125" y="312" type="line"/>
      <point x="62.5" y="312" type="line"/>
      <point x="62.5" y="562" type="line"/>
      <point x="125" y="562" type="line"/>
      <point x="125" y="624.5" type="line"/>
      <point x="375" y="624.5" type="line"/>
      <point x="375" y="562" type="line"/>
      <point x="437.5" y="562" type="line"/>
      <point x="437.5" y="312" type="line"/>
      <point x="375" y="312" type="line"/>
      <point x="375" y="249.5" type="line"/>
      <point x="312.5" y="249.5" type="line"/>
      <point x="312.5" y="187" type="line"/>
      <point x="437.5" y="187" type="line"/>
      <point x="437.5" y="124.5" type="line"/>
      <point x="312.5" y="124.5" type="line"/>
      <point x="312.5" y="-0.5" type="line"/>
      <point x="187.5" y="-0.5" type="line"/>
      <point x="187.5" y="124.5" type="line"/>
      <point x="62.5" y="124.5" type="line"/>
      <point x="62.5" y="187" type="line"/>
      <point x="187.5" y="187" type="line"/>
    </contour>
    <contour>
      <point x="187.5" y="562" type="line"/>
      <point x="187.5" y="312" type="line"/>
      <point x="312.5" y="312" type="line"/>
      <point x="312.5" y="562" type="line"/>
    </contour>
  </outline>
</glyph>
<glyph name="musicalnote" format="2">
  <advance width="500"/>
  <unicode hex="266A"/>
  <outline>
    <contour>
      <point x="0" y="124.5" type="line"/>
      <point x="62.5" y="124.5" type="line"/>
      <point x="62.5" y="187" type="line"/>
      <point x="125" y="187" type="line"/>
      <point x="125" y="624.5" type="line"/>
      <point x="500" y="624.5" type="line"/>
      <point x="500" y="437" type="line"/>
      <point x="250" y="437" type="line"/>
      <point x="250" y="124.5" type="line"/>
      <point x="250" y="62" type="line"/>
      <point x="187.5" y="62" type="line"/>
      <point x="187.5" y="-0.5" type="line"/>
      <point x="0" y="-0.5" type="line"/>
    </contour>
    <contour>
      <point x="250" y="562" type="line"/>
      <point x="250" y="499.5" type="line"/>
      <point x="312.5" y="499.5" type="line"/>
      <point x="375" y="499.5" type="line"/>
      <point x="375" y="562" type="line"/>
      <point x="312.5" y="562" type="line"/>
    </contour>
  </outline>
</glyph>
